%TF.GenerationSoftware,KiCad,Pcbnew,10.0.3*%
%TF.CreationDate,2026-09-18T23:32:05-04:00*%
%TF.ProjectId,radio,72616469-6f2e-46b6-9963-61645f706362,rev?*%
%TF.SameCoordinates,Original*%
%TF.FileFunction,Copper,L1,Top*%
%TF.FilePolarity,Positive*%
%FSLAX46Y46*%
G04 Gerber Fmt 4.6, Leading zero omitted, Abs format (unit mm)*
G04 Created by KiCad (PCBNEW 10.0.3) date 2026-09-18 23:32:05*
%MOMM*%
%LPD*%
G01*
G04 APERTURE LIST*
G04 Aperture macros list*
%AMRoundRect*
0 Rectangle with rounded corners*
0 $1 Rounding radius*
0 $2 $3 $4 $5 $6 $7 $8 $9 X,Y pos of 4 corners*
0 Add a 4 corners polygon primitive as box body*
4,1,4,$2,$3,$4,$5,$6,$7,$8,$9,$2,$3,0*
0 Add four circle primitives for the rounded corners*
1,1,$1+$1,$2,$3*
1,1,$1+$1,$4,$5*
1,1,$1+$1,$6,$7*
1,1,$1+$1,$8,$9*
0 Add four rect primitives between the rounded corners*
20,1,$1+$1,$2,$3,$4,$5,0*
20,1,$1+$1,$4,$5,$6,$7,0*
20,1,$1+$1,$6,$7,$8,$9,0*
20,1,$1+$1,$8,$9,$2,$3,0*%
G04 Aperture macros list end*
%TA.AperFunction,ComponentPad*%
%ADD10O,3.500000X2.500000*%
%TD*%
%TA.AperFunction,ComponentPad*%
%ADD11O,2.500000X3.500000*%
%TD*%
%TA.AperFunction,ComponentPad*%
%ADD12O,3.000000X1.500000*%
%TD*%
%TA.AperFunction,SMDPad,CuDef*%
%ADD13RoundRect,0.152400X0.609600X-1.063600X0.609600X1.063600X-0.609600X1.063600X-0.609600X-1.063600X0*%
%TD*%
%TA.AperFunction,ComponentPad*%
%ADD14C,1.524000*%
%TD*%
%TA.AperFunction,SMDPad,CuDef*%
%ADD15RoundRect,0.152400X-0.609600X1.063600X-0.609600X-1.063600X0.609600X-1.063600X0.609600X1.063600X0*%
%TD*%
%TA.AperFunction,ComponentPad*%
%ADD16C,1.600000*%
%TD*%
%TA.AperFunction,ComponentPad*%
%ADD17RoundRect,0.250000X-0.550000X-0.550000X0.550000X-0.550000X0.550000X0.550000X-0.550000X0.550000X0*%
%TD*%
%TA.AperFunction,ComponentPad*%
%ADD18RoundRect,0.400000X0.400000X-0.400000X0.400000X0.400000X-0.400000X0.400000X-0.400000X-0.400000X0*%
%TD*%
%TA.AperFunction,ComponentPad*%
%ADD19C,1.800000*%
%TD*%
%TA.AperFunction,ComponentPad*%
%ADD20O,3.400000X2.800000*%
%TD*%
%TA.AperFunction,ComponentPad*%
%ADD21R,1.700000X1.700000*%
%TD*%
%TA.AperFunction,ComponentPad*%
%ADD22C,1.700000*%
%TD*%
%TA.AperFunction,ViaPad*%
%ADD23C,0.600000*%
%TD*%
%TA.AperFunction,Conductor*%
%ADD24C,0.200000*%
%TD*%
G04 APERTURE END LIST*
D10*
%TO.P,J1,T*%
%TO.N,/tip*%
X139000000Y-70100000D03*
D11*
%TO.P,J1,S*%
%TO.N,GND*%
X135500000Y-65600000D03*
D12*
%TO.P,J1,R*%
%TO.N,N/C*%
X143800000Y-60600000D03*
%TD*%
D13*
%TO.P,U1,1,P26_A0_D0_1*%
%TO.N,/A1*%
X156420000Y-89345000D03*
D14*
X156420000Y-90180000D03*
D13*
%TO.P,U1,2,P27_A1_D1_2*%
%TO.N,/B1*%
X153880000Y-89345000D03*
D14*
X153880000Y-90180000D03*
D13*
%TO.P,U1,3,P28_A2_D2_3*%
%TO.N,/C1*%
X151340000Y-89345000D03*
D14*
X151340000Y-90180000D03*
D13*
%TO.P,U1,4,P29_A3_D3_4*%
%TO.N,/S2*%
X148800000Y-89345000D03*
D14*
X148800000Y-90180000D03*
D13*
%TO.P,U1,5,P6_SDA_D4_5*%
%TO.N,/SDA*%
X146260000Y-89345000D03*
D14*
X146260000Y-90180000D03*
D13*
%TO.P,U1,6,P7_SCL_D5_6*%
%TO.N,/SCL*%
X143720000Y-89345000D03*
D14*
X143720000Y-90180000D03*
D13*
%TO.P,U1,7,P0_D6_TX_7*%
%TO.N,/S1*%
X141180000Y-89345000D03*
D14*
X141180000Y-90180000D03*
%TO.P,U1,8,P1_D7_RX_8*%
%TO.N,Net-(U1-P1_D7_RX)*%
X141180000Y-105420000D03*
D15*
X141180000Y-106255000D03*
D14*
%TO.P,U1,9,P2_D8_SCK_9*%
%TO.N,unconnected-(U1-P2_D8_SCK-Pad9)_1*%
X143720000Y-105420000D03*
D15*
%TO.N,unconnected-(U1-P2_D8_SCK-Pad9)*%
X143720000Y-106255000D03*
D14*
%TO.P,U1,10,P4_D9_MISO_10*%
%TO.N,unconnected-(U1-P4_D9_MISO-Pad10)_1*%
X146260000Y-105420000D03*
D15*
%TO.N,unconnected-(U1-P4_D9_MISO-Pad10)*%
X146260000Y-106255000D03*
D14*
%TO.P,U1,11,P3_D10_MOSI_11*%
%TO.N,/tip*%
X148800000Y-105420000D03*
D15*
X148800000Y-106255000D03*
D14*
%TO.P,U1,12,3V3_12*%
%TO.N,+3V3*%
X151340000Y-105420000D03*
D15*
X151340000Y-106255000D03*
D14*
%TO.P,U1,13,GND_13*%
%TO.N,GND*%
X153880000Y-105420000D03*
D15*
X153880000Y-106255000D03*
D14*
%TO.P,U1,14,VBUS_14*%
%TO.N,unconnected-(U1-VBUS-Pad14)*%
X156420000Y-105420000D03*
D15*
%TO.N,unconnected-(U1-VBUS-Pad14)_1*%
X156420000Y-106255000D03*
%TD*%
D16*
%TO.P,C2,2*%
%TO.N,GND*%
X102600000Y-75600000D03*
D17*
%TO.P,C2,1*%
%TO.N,Net-(U3-NF2)*%
X100100000Y-75600000D03*
%TD*%
D18*
%TO.P,SW1,1*%
%TO.N,N/C*%
X129600000Y-78000000D03*
D16*
%TO.P,SW1,2*%
X129600000Y-80000000D03*
%TO.P,SW1,3*%
X129600000Y-82000000D03*
%TO.P,SW1,4*%
X129600000Y-84000000D03*
D19*
%TO.P,SW1,A,A_A*%
%TO.N,/A1*%
X144100000Y-83500000D03*
%TO.P,SW1,B,B_B*%
%TO.N,/B1*%
X144100000Y-81000000D03*
%TO.P,SW1,C,C_C*%
%TO.N,/C1*%
X144100000Y-78500000D03*
D20*
%TO.P,SW1,SH*%
%TO.N,N/C*%
X136600000Y-75400000D03*
X136600000Y-86600000D03*
%TD*%
D21*
%TO.P,J5,1,Pin_1_1*%
%TO.N,/L AMP OUT*%
X115365000Y-67195000D03*
D22*
%TO.P,J5,2,Pin_2_2*%
%TO.N,GND*%
X115365000Y-69735000D03*
%TD*%
D17*
%TO.P,C5,1*%
%TO.N,Net-(U3-OUT2)*%
X100217621Y-103200000D03*
D16*
%TO.P,C5,2*%
%TO.N,/L AMP OUT*%
X102717621Y-103200000D03*
%TD*%
D21*
%TO.P,J4,1,Pin_1_1*%
%TO.N,/R AMP OUT*%
X110775000Y-67195000D03*
D22*
%TO.P,J4,2,Pin_2_2*%
%TO.N,GND*%
X110775000Y-69735000D03*
%TD*%
D17*
%TO.P,U3,1,OUT1_1*%
%TO.N,Net-(U3-OUT1)*%
X109780000Y-79980000D03*
D16*
%TO.P,U3,2,VCC_2*%
%TO.N,+3V3*%
X109780000Y-82520000D03*
%TO.P,U3,3,OUT2_3*%
%TO.N,Net-(U3-OUT2)*%
X109780000Y-85060000D03*
%TO.P,U3,4,GND_4*%
%TO.N,GND*%
X109780000Y-87600000D03*
%TO.P,U3,5,NF2_5*%
%TO.N,Net-(U3-NF2)*%
X117400000Y-87600000D03*
%TO.P,U3,6,IN2_6*%
%TO.N,Net-(U3-IN2)*%
X117400000Y-85060000D03*
%TO.P,U3,7,IN1_7*%
%TO.N,Net-(U3-IN1)*%
X117400000Y-82520000D03*
%TO.P,U3,8,NF1_8*%
%TO.N,Net-(U3-NF1)*%
X117400000Y-79980000D03*
%TD*%
D17*
%TO.P,C3,1*%
%TO.N,+3V3*%
X100217621Y-85000000D03*
D16*
%TO.P,C3,2*%
%TO.N,GND*%
X102717621Y-85000000D03*
%TD*%
D17*
%TO.P,C1,1*%
%TO.N,Net-(U3-NF1)*%
X100217621Y-66000000D03*
D16*
%TO.P,C1,2*%
%TO.N,GND*%
X102717621Y-66000000D03*
%TD*%
D21*
%TO.P,RV2,1,1_1*%
%TO.N,/LOUT*%
X132200000Y-100260000D03*
D22*
%TO.P,RV2,2,2_2*%
%TO.N,Net-(U3-IN2)*%
X132200000Y-102800000D03*
%TO.P,RV2,3,3_3*%
%TO.N,GND*%
X132200000Y-105340000D03*
%TD*%
D16*
%TO.P,R1,1*%
%TO.N,Net-(U3-IN1)*%
X107190000Y-61200000D03*
%TO.P,R1,2*%
%TO.N,GND*%
X114810000Y-61200000D03*
%TD*%
%TO.P,R2,1*%
%TO.N,Net-(U3-IN2)*%
X119580000Y-61200000D03*
%TO.P,R2,2*%
%TO.N,GND*%
X127200000Y-61200000D03*
%TD*%
D17*
%TO.P,C4,1*%
%TO.N,Net-(U3-OUT1)*%
X100100000Y-94200000D03*
D16*
%TO.P,C4,2*%
%TO.N,/R AMP OUT*%
X102600000Y-94200000D03*
%TD*%
D21*
%TO.P,SW3,1,1_1*%
%TO.N,Net-(U1-P1_D7_RX)*%
X119955000Y-67195000D03*
D22*
%TO.P,SW3,2,2_2*%
%TO.N,GND*%
X119955000Y-69735000D03*
%TD*%
D21*
%TO.P,RV1,1,1_1*%
%TO.N,/ROUT*%
X110800000Y-100200000D03*
D22*
%TO.P,RV1,2,2_2*%
%TO.N,Net-(U3-IN1)*%
X110800000Y-102740000D03*
%TO.P,RV1,3,3_3*%
%TO.N,GND*%
X110800000Y-105280000D03*
%TD*%
D23*
%TO.N,/A1*%
X147525735Y-85274265D03*
%TO.N,/B1*%
X150400000Y-86600000D03*
%TO.N,Net-(U1-P1_D7_RX)*%
X122200000Y-83120000D03*
%TO.N,/tip*%
X152400000Y-101600000D03*
%TO.N,Net-(U3-IN1)*%
X126759593Y-84040407D03*
%TO.N,+3V3*%
X111600000Y-83200000D03*
X112600000Y-81000000D03*
%TO.N,Net-(U3-IN2)*%
X115800000Y-84600000D03*
X117800000Y-68800000D03*
%TO.N,Net-(U3-NF1)*%
X103600000Y-67800000D03*
%TO.N,Net-(U3-OUT1)*%
X106600000Y-88400000D03*
%TO.N,+3V3*%
X102000000Y-83000000D03*
%TO.N,Net-(U3-NF2)*%
X103800000Y-79000000D03*
%TO.N,Net-(U3-OUT2)*%
X107600000Y-86600000D03*
%TO.N,/L AMP OUT*%
X113200000Y-69135000D03*
%TO.N,/R AMP OUT*%
X106765735Y-85600000D03*
%TD*%
%TO.N,/A1*%
D24*
X145751470Y-83500000D02*
X147525735Y-85274265D01*
X144100000Y-83500000D02*
X145751470Y-83500000D01*
%TO.N,/B1*%
X149700000Y-86600000D02*
X150400000Y-86600000D01*
X144100000Y-81000000D02*
X149700000Y-86600000D01*
%TO.N,/C1*%
X144100000Y-78500000D02*
X151340000Y-85740000D01*
X151340000Y-85740000D02*
X151340000Y-89345000D01*
%TO.N,Net-(U1-P1_D7_RX)*%
X141180000Y-102100000D02*
X122200000Y-83120000D01*
X141180000Y-105420000D02*
X141180000Y-102100000D01*
%TO.N,/tip*%
X152800000Y-83900000D02*
X152800000Y-101200000D01*
X139000000Y-70100000D02*
X152800000Y-83900000D01*
X152800000Y-101200000D02*
X152400000Y-101600000D01*
%TO.N,Net-(U3-IN1)*%
X126759593Y-83757562D02*
X126759593Y-84040407D01*
X125522031Y-82520000D02*
X126759593Y-83757562D01*
%TO.N,+3V3*%
X151340000Y-106255000D02*
X131585000Y-86500000D01*
X131585000Y-86500000D02*
X130067716Y-86500000D01*
X124987716Y-81420000D02*
X113020000Y-81420000D01*
X113020000Y-81420000D02*
X112600000Y-81000000D01*
X130067716Y-86500000D02*
X124987716Y-81420000D01*
X111600000Y-83200000D02*
X110920000Y-82520000D01*
X110920000Y-82520000D02*
X109780000Y-82520000D01*
%TO.N,GND*%
X127200000Y-61200000D02*
X138600000Y-72600000D01*
X138600000Y-72600000D02*
X138600000Y-90140000D01*
X138600000Y-90140000D02*
X153880000Y-105420000D01*
X135500000Y-65600000D02*
X131600000Y-65600000D01*
X131600000Y-65600000D02*
X127200000Y-61200000D01*
%TO.N,Net-(U3-IN2)*%
X116260000Y-85060000D02*
X115800000Y-84600000D01*
X117400000Y-85060000D02*
X116260000Y-85060000D01*
X117800000Y-62980000D02*
X117800000Y-68800000D01*
X119580000Y-61200000D02*
X117800000Y-62980000D01*
%TO.N,Net-(U3-IN1)*%
X107190000Y-61200000D02*
X108290000Y-60100000D01*
X108290000Y-60100000D02*
X127655635Y-60100000D01*
X125522031Y-82520000D02*
X117400000Y-82520000D01*
%TO.N,Net-(U3-NF1)*%
X115780000Y-79980000D02*
X103600000Y-67800000D01*
X117400000Y-79980000D02*
X115780000Y-79980000D01*
%TO.N,Net-(U3-OUT1)*%
X106600000Y-91755635D02*
X106600000Y-88400000D01*
X103055635Y-95300000D02*
X106600000Y-91755635D01*
X101200000Y-95300000D02*
X103055635Y-95300000D01*
X100100000Y-94200000D02*
X101200000Y-95300000D01*
%TO.N,+3V3*%
X100217621Y-84782379D02*
X102000000Y-83000000D01*
X100217621Y-85000000D02*
X100217621Y-84782379D01*
%TO.N,Net-(U3-NF2)*%
X110880000Y-81080000D02*
X105880000Y-81080000D01*
X105880000Y-81080000D02*
X103800000Y-79000000D01*
X117400000Y-87600000D02*
X110880000Y-81080000D01*
%TO.N,Net-(U3-OUT2)*%
X107600000Y-95817621D02*
X107600000Y-86600000D01*
X100217621Y-103200000D02*
X107600000Y-95817621D01*
%TO.N,/L AMP OUT*%
X113425000Y-69135000D02*
X113200000Y-69135000D01*
X115365000Y-67195000D02*
X113425000Y-69135000D01*
%TO.N,/R AMP OUT*%
X102600000Y-89765735D02*
X106765735Y-85600000D01*
X102600000Y-94200000D02*
X102600000Y-89765735D01*
%TO.N,Net-(U3-IN1)*%
X110800000Y-102740000D02*
X118500000Y-95040000D01*
X118500000Y-95040000D02*
X118500000Y-83620000D01*
X118500000Y-83620000D02*
X117400000Y-82520000D01*
%TO.N,GND*%
X110800000Y-105280000D02*
X108980001Y-103460001D01*
X108980001Y-103460001D02*
X108980001Y-88399999D01*
X108980001Y-88399999D02*
X109780000Y-87600000D01*
X132200000Y-105340000D02*
X110860000Y-105340000D01*
X110860000Y-105340000D02*
X110800000Y-105280000D01*
X114810000Y-61200000D02*
X116515000Y-62905000D01*
X116515000Y-62905000D02*
X116515000Y-68585000D01*
X116515000Y-68585000D02*
X115365000Y-69735000D01*
X119955000Y-69735000D02*
X127200000Y-62490000D01*
X127200000Y-62490000D02*
X127200000Y-61200000D01*
X115365000Y-69735000D02*
X119955000Y-69735000D01*
X110775000Y-69735000D02*
X115365000Y-69735000D01*
X102717621Y-66000000D02*
X107040000Y-66000000D01*
X107040000Y-66000000D02*
X110775000Y-69735000D01*
X102600000Y-75600000D02*
X102600000Y-66117621D01*
X102600000Y-66117621D02*
X102717621Y-66000000D01*
X102717621Y-85000000D02*
X102717621Y-75717621D01*
X102717621Y-75717621D02*
X102600000Y-75600000D01*
X102717621Y-85000000D02*
X107180000Y-85000000D01*
X107180000Y-85000000D02*
X109780000Y-87600000D01*
%TD*%
M02*
