%TF.GenerationSoftware,KiCad,Pcbnew,10.0.3*%
%TF.CreationDate,2026-09-18T23:32:05-04:00*%
%TF.ProjectId,radio,72616469-6f2e-46b6-9963-61645f706362,rev?*%
%TF.SameCoordinates,Original*%
%TF.FileFunction,Legend,Top*%
%TF.FilePolarity,Positive*%
%FSLAX46Y46*%
G04 Gerber Fmt 4.6, Leading zero omitted, Abs format (unit mm)*
G04 Created by KiCad (PCBNEW 10.0.3) date 2026-09-18 23:32:05*
%MOMM*%
%LPD*%
G01*
G04 APERTURE LIST*
%ADD10C,0.150000*%
%ADD11C,0.101600*%
%ADD12C,0.120000*%
%ADD13C,0.127000*%
%ADD14C,0.100000*%
%ADD15C,0.504000*%
G04 APERTURE END LIST*
D10*
X140366666Y-58054819D02*
X140366666Y-58769104D01*
X140366666Y-58769104D02*
X140319047Y-58911961D01*
X140319047Y-58911961D02*
X140223809Y-59007200D01*
X140223809Y-59007200D02*
X140080952Y-59054819D01*
X140080952Y-59054819D02*
X139985714Y-59054819D01*
X141366666Y-59054819D02*
X140795238Y-59054819D01*
X141080952Y-59054819D02*
X141080952Y-58054819D01*
X141080952Y-58054819D02*
X140985714Y-58197676D01*
X140985714Y-58197676D02*
X140890476Y-58292914D01*
X140890476Y-58292914D02*
X140795238Y-58340533D01*
D11*
X148191190Y-87203479D02*
X148191190Y-87717526D01*
X148191190Y-87717526D02*
X148221428Y-87778002D01*
X148221428Y-87778002D02*
X148251666Y-87808241D01*
X148251666Y-87808241D02*
X148312142Y-87838479D01*
X148312142Y-87838479D02*
X148433095Y-87838479D01*
X148433095Y-87838479D02*
X148493571Y-87808241D01*
X148493571Y-87808241D02*
X148523809Y-87778002D01*
X148523809Y-87778002D02*
X148554047Y-87717526D01*
X148554047Y-87717526D02*
X148554047Y-87203479D01*
X149189047Y-87838479D02*
X148826190Y-87838479D01*
X149007618Y-87838479D02*
X149007618Y-87203479D01*
X149007618Y-87203479D02*
X148947142Y-87294193D01*
X148947142Y-87294193D02*
X148886666Y-87354669D01*
X148886666Y-87354669D02*
X148826190Y-87384907D01*
D10*
X101183333Y-71559580D02*
X101135714Y-71607200D01*
X101135714Y-71607200D02*
X100992857Y-71654819D01*
X100992857Y-71654819D02*
X100897619Y-71654819D01*
X100897619Y-71654819D02*
X100754762Y-71607200D01*
X100754762Y-71607200D02*
X100659524Y-71511961D01*
X100659524Y-71511961D02*
X100611905Y-71416723D01*
X100611905Y-71416723D02*
X100564286Y-71226247D01*
X100564286Y-71226247D02*
X100564286Y-71083390D01*
X100564286Y-71083390D02*
X100611905Y-70892914D01*
X100611905Y-70892914D02*
X100659524Y-70797676D01*
X100659524Y-70797676D02*
X100754762Y-70702438D01*
X100754762Y-70702438D02*
X100897619Y-70654819D01*
X100897619Y-70654819D02*
X100992857Y-70654819D01*
X100992857Y-70654819D02*
X101135714Y-70702438D01*
X101135714Y-70702438D02*
X101183333Y-70750057D01*
X101564286Y-70750057D02*
X101611905Y-70702438D01*
X101611905Y-70702438D02*
X101707143Y-70654819D01*
X101707143Y-70654819D02*
X101945238Y-70654819D01*
X101945238Y-70654819D02*
X102040476Y-70702438D01*
X102040476Y-70702438D02*
X102088095Y-70750057D01*
X102088095Y-70750057D02*
X102135714Y-70845295D01*
X102135714Y-70845295D02*
X102135714Y-70940533D01*
X102135714Y-70940533D02*
X102088095Y-71083390D01*
X102088095Y-71083390D02*
X101516667Y-71654819D01*
X101516667Y-71654819D02*
X102135714Y-71654819D01*
X130466667Y-73807200D02*
X130609524Y-73854819D01*
X130609524Y-73854819D02*
X130847619Y-73854819D01*
X130847619Y-73854819D02*
X130942857Y-73807200D01*
X130942857Y-73807200D02*
X130990476Y-73759580D01*
X130990476Y-73759580D02*
X131038095Y-73664342D01*
X131038095Y-73664342D02*
X131038095Y-73569104D01*
X131038095Y-73569104D02*
X130990476Y-73473866D01*
X130990476Y-73473866D02*
X130942857Y-73426247D01*
X130942857Y-73426247D02*
X130847619Y-73378628D01*
X130847619Y-73378628D02*
X130657143Y-73331009D01*
X130657143Y-73331009D02*
X130561905Y-73283390D01*
X130561905Y-73283390D02*
X130514286Y-73235771D01*
X130514286Y-73235771D02*
X130466667Y-73140533D01*
X130466667Y-73140533D02*
X130466667Y-73045295D01*
X130466667Y-73045295D02*
X130514286Y-72950057D01*
X130514286Y-72950057D02*
X130561905Y-72902438D01*
X130561905Y-72902438D02*
X130657143Y-72854819D01*
X130657143Y-72854819D02*
X130895238Y-72854819D01*
X130895238Y-72854819D02*
X131038095Y-72902438D01*
X131371429Y-72854819D02*
X131609524Y-73854819D01*
X131609524Y-73854819D02*
X131800000Y-73140533D01*
X131800000Y-73140533D02*
X131990476Y-73854819D01*
X131990476Y-73854819D02*
X132228572Y-72854819D01*
X133133333Y-73854819D02*
X132561905Y-73854819D01*
X132847619Y-73854819D02*
X132847619Y-72854819D01*
X132847619Y-72854819D02*
X132752381Y-72997676D01*
X132752381Y-72997676D02*
X132657143Y-73092914D01*
X132657143Y-73092914D02*
X132561905Y-73140533D01*
X115031666Y-64269819D02*
X115031666Y-64984104D01*
X115031666Y-64984104D02*
X114984047Y-65126961D01*
X114984047Y-65126961D02*
X114888809Y-65222200D01*
X114888809Y-65222200D02*
X114745952Y-65269819D01*
X114745952Y-65269819D02*
X114650714Y-65269819D01*
X115984047Y-64269819D02*
X115507857Y-64269819D01*
X115507857Y-64269819D02*
X115460238Y-64746009D01*
X115460238Y-64746009D02*
X115507857Y-64698390D01*
X115507857Y-64698390D02*
X115603095Y-64650771D01*
X115603095Y-64650771D02*
X115841190Y-64650771D01*
X115841190Y-64650771D02*
X115936428Y-64698390D01*
X115936428Y-64698390D02*
X115984047Y-64746009D01*
X115984047Y-64746009D02*
X116031666Y-64841247D01*
X116031666Y-64841247D02*
X116031666Y-65079342D01*
X116031666Y-65079342D02*
X115984047Y-65174580D01*
X115984047Y-65174580D02*
X115936428Y-65222200D01*
X115936428Y-65222200D02*
X115841190Y-65269819D01*
X115841190Y-65269819D02*
X115603095Y-65269819D01*
X115603095Y-65269819D02*
X115507857Y-65222200D01*
X115507857Y-65222200D02*
X115460238Y-65174580D01*
X101300954Y-99159580D02*
X101253335Y-99207200D01*
X101253335Y-99207200D02*
X101110478Y-99254819D01*
X101110478Y-99254819D02*
X101015240Y-99254819D01*
X101015240Y-99254819D02*
X100872383Y-99207200D01*
X100872383Y-99207200D02*
X100777145Y-99111961D01*
X100777145Y-99111961D02*
X100729526Y-99016723D01*
X100729526Y-99016723D02*
X100681907Y-98826247D01*
X100681907Y-98826247D02*
X100681907Y-98683390D01*
X100681907Y-98683390D02*
X100729526Y-98492914D01*
X100729526Y-98492914D02*
X100777145Y-98397676D01*
X100777145Y-98397676D02*
X100872383Y-98302438D01*
X100872383Y-98302438D02*
X101015240Y-98254819D01*
X101015240Y-98254819D02*
X101110478Y-98254819D01*
X101110478Y-98254819D02*
X101253335Y-98302438D01*
X101253335Y-98302438D02*
X101300954Y-98350057D01*
X102205716Y-98254819D02*
X101729526Y-98254819D01*
X101729526Y-98254819D02*
X101681907Y-98731009D01*
X101681907Y-98731009D02*
X101729526Y-98683390D01*
X101729526Y-98683390D02*
X101824764Y-98635771D01*
X101824764Y-98635771D02*
X102062859Y-98635771D01*
X102062859Y-98635771D02*
X102158097Y-98683390D01*
X102158097Y-98683390D02*
X102205716Y-98731009D01*
X102205716Y-98731009D02*
X102253335Y-98826247D01*
X102253335Y-98826247D02*
X102253335Y-99064342D01*
X102253335Y-99064342D02*
X102205716Y-99159580D01*
X102205716Y-99159580D02*
X102158097Y-99207200D01*
X102158097Y-99207200D02*
X102062859Y-99254819D01*
X102062859Y-99254819D02*
X101824764Y-99254819D01*
X101824764Y-99254819D02*
X101729526Y-99207200D01*
X101729526Y-99207200D02*
X101681907Y-99159580D01*
X110441666Y-64269819D02*
X110441666Y-64984104D01*
X110441666Y-64984104D02*
X110394047Y-65126961D01*
X110394047Y-65126961D02*
X110298809Y-65222200D01*
X110298809Y-65222200D02*
X110155952Y-65269819D01*
X110155952Y-65269819D02*
X110060714Y-65269819D01*
X111346428Y-64603152D02*
X111346428Y-65269819D01*
X111108333Y-64222200D02*
X110870238Y-64936485D01*
X110870238Y-64936485D02*
X111489285Y-64936485D01*
X112828095Y-77104819D02*
X112828095Y-77914342D01*
X112828095Y-77914342D02*
X112875714Y-78009580D01*
X112875714Y-78009580D02*
X112923333Y-78057200D01*
X112923333Y-78057200D02*
X113018571Y-78104819D01*
X113018571Y-78104819D02*
X113209047Y-78104819D01*
X113209047Y-78104819D02*
X113304285Y-78057200D01*
X113304285Y-78057200D02*
X113351904Y-78009580D01*
X113351904Y-78009580D02*
X113399523Y-77914342D01*
X113399523Y-77914342D02*
X113399523Y-77104819D01*
X113780476Y-77104819D02*
X114399523Y-77104819D01*
X114399523Y-77104819D02*
X114066190Y-77485771D01*
X114066190Y-77485771D02*
X114209047Y-77485771D01*
X114209047Y-77485771D02*
X114304285Y-77533390D01*
X114304285Y-77533390D02*
X114351904Y-77581009D01*
X114351904Y-77581009D02*
X114399523Y-77676247D01*
X114399523Y-77676247D02*
X114399523Y-77914342D01*
X114399523Y-77914342D02*
X114351904Y-78009580D01*
X114351904Y-78009580D02*
X114304285Y-78057200D01*
X114304285Y-78057200D02*
X114209047Y-78104819D01*
X114209047Y-78104819D02*
X113923333Y-78104819D01*
X113923333Y-78104819D02*
X113828095Y-78057200D01*
X113828095Y-78057200D02*
X113780476Y-78009580D01*
X101300954Y-80959580D02*
X101253335Y-81007200D01*
X101253335Y-81007200D02*
X101110478Y-81054819D01*
X101110478Y-81054819D02*
X101015240Y-81054819D01*
X101015240Y-81054819D02*
X100872383Y-81007200D01*
X100872383Y-81007200D02*
X100777145Y-80911961D01*
X100777145Y-80911961D02*
X100729526Y-80816723D01*
X100729526Y-80816723D02*
X100681907Y-80626247D01*
X100681907Y-80626247D02*
X100681907Y-80483390D01*
X100681907Y-80483390D02*
X100729526Y-80292914D01*
X100729526Y-80292914D02*
X100777145Y-80197676D01*
X100777145Y-80197676D02*
X100872383Y-80102438D01*
X100872383Y-80102438D02*
X101015240Y-80054819D01*
X101015240Y-80054819D02*
X101110478Y-80054819D01*
X101110478Y-80054819D02*
X101253335Y-80102438D01*
X101253335Y-80102438D02*
X101300954Y-80150057D01*
X101634288Y-80054819D02*
X102253335Y-80054819D01*
X102253335Y-80054819D02*
X101920002Y-80435771D01*
X101920002Y-80435771D02*
X102062859Y-80435771D01*
X102062859Y-80435771D02*
X102158097Y-80483390D01*
X102158097Y-80483390D02*
X102205716Y-80531009D01*
X102205716Y-80531009D02*
X102253335Y-80626247D01*
X102253335Y-80626247D02*
X102253335Y-80864342D01*
X102253335Y-80864342D02*
X102205716Y-80959580D01*
X102205716Y-80959580D02*
X102158097Y-81007200D01*
X102158097Y-81007200D02*
X102062859Y-81054819D01*
X102062859Y-81054819D02*
X101777145Y-81054819D01*
X101777145Y-81054819D02*
X101681907Y-81007200D01*
X101681907Y-81007200D02*
X101634288Y-80959580D01*
X101300954Y-61959580D02*
X101253335Y-62007200D01*
X101253335Y-62007200D02*
X101110478Y-62054819D01*
X101110478Y-62054819D02*
X101015240Y-62054819D01*
X101015240Y-62054819D02*
X100872383Y-62007200D01*
X100872383Y-62007200D02*
X100777145Y-61911961D01*
X100777145Y-61911961D02*
X100729526Y-61816723D01*
X100729526Y-61816723D02*
X100681907Y-61626247D01*
X100681907Y-61626247D02*
X100681907Y-61483390D01*
X100681907Y-61483390D02*
X100729526Y-61292914D01*
X100729526Y-61292914D02*
X100777145Y-61197676D01*
X100777145Y-61197676D02*
X100872383Y-61102438D01*
X100872383Y-61102438D02*
X101015240Y-61054819D01*
X101015240Y-61054819D02*
X101110478Y-61054819D01*
X101110478Y-61054819D02*
X101253335Y-61102438D01*
X101253335Y-61102438D02*
X101300954Y-61150057D01*
X102253335Y-62054819D02*
X101681907Y-62054819D01*
X101967621Y-62054819D02*
X101967621Y-61054819D01*
X101967621Y-61054819D02*
X101872383Y-61197676D01*
X101872383Y-61197676D02*
X101777145Y-61292914D01*
X101777145Y-61292914D02*
X101681907Y-61340533D01*
X131604761Y-98334819D02*
X131271428Y-97858628D01*
X131033333Y-98334819D02*
X131033333Y-97334819D01*
X131033333Y-97334819D02*
X131414285Y-97334819D01*
X131414285Y-97334819D02*
X131509523Y-97382438D01*
X131509523Y-97382438D02*
X131557142Y-97430057D01*
X131557142Y-97430057D02*
X131604761Y-97525295D01*
X131604761Y-97525295D02*
X131604761Y-97668152D01*
X131604761Y-97668152D02*
X131557142Y-97763390D01*
X131557142Y-97763390D02*
X131509523Y-97811009D01*
X131509523Y-97811009D02*
X131414285Y-97858628D01*
X131414285Y-97858628D02*
X131033333Y-97858628D01*
X131890476Y-97334819D02*
X132223809Y-98334819D01*
X132223809Y-98334819D02*
X132557142Y-97334819D01*
X132842857Y-97430057D02*
X132890476Y-97382438D01*
X132890476Y-97382438D02*
X132985714Y-97334819D01*
X132985714Y-97334819D02*
X133223809Y-97334819D01*
X133223809Y-97334819D02*
X133319047Y-97382438D01*
X133319047Y-97382438D02*
X133366666Y-97430057D01*
X133366666Y-97430057D02*
X133414285Y-97525295D01*
X133414285Y-97525295D02*
X133414285Y-97620533D01*
X133414285Y-97620533D02*
X133366666Y-97763390D01*
X133366666Y-97763390D02*
X132795238Y-98334819D01*
X132795238Y-98334819D02*
X133414285Y-98334819D01*
X110833333Y-59284819D02*
X110500000Y-58808628D01*
X110261905Y-59284819D02*
X110261905Y-58284819D01*
X110261905Y-58284819D02*
X110642857Y-58284819D01*
X110642857Y-58284819D02*
X110738095Y-58332438D01*
X110738095Y-58332438D02*
X110785714Y-58380057D01*
X110785714Y-58380057D02*
X110833333Y-58475295D01*
X110833333Y-58475295D02*
X110833333Y-58618152D01*
X110833333Y-58618152D02*
X110785714Y-58713390D01*
X110785714Y-58713390D02*
X110738095Y-58761009D01*
X110738095Y-58761009D02*
X110642857Y-58808628D01*
X110642857Y-58808628D02*
X110261905Y-58808628D01*
X111785714Y-59284819D02*
X111214286Y-59284819D01*
X111500000Y-59284819D02*
X111500000Y-58284819D01*
X111500000Y-58284819D02*
X111404762Y-58427676D01*
X111404762Y-58427676D02*
X111309524Y-58522914D01*
X111309524Y-58522914D02*
X111214286Y-58570533D01*
X123223333Y-59284819D02*
X122890000Y-58808628D01*
X122651905Y-59284819D02*
X122651905Y-58284819D01*
X122651905Y-58284819D02*
X123032857Y-58284819D01*
X123032857Y-58284819D02*
X123128095Y-58332438D01*
X123128095Y-58332438D02*
X123175714Y-58380057D01*
X123175714Y-58380057D02*
X123223333Y-58475295D01*
X123223333Y-58475295D02*
X123223333Y-58618152D01*
X123223333Y-58618152D02*
X123175714Y-58713390D01*
X123175714Y-58713390D02*
X123128095Y-58761009D01*
X123128095Y-58761009D02*
X123032857Y-58808628D01*
X123032857Y-58808628D02*
X122651905Y-58808628D01*
X123604286Y-58380057D02*
X123651905Y-58332438D01*
X123651905Y-58332438D02*
X123747143Y-58284819D01*
X123747143Y-58284819D02*
X123985238Y-58284819D01*
X123985238Y-58284819D02*
X124080476Y-58332438D01*
X124080476Y-58332438D02*
X124128095Y-58380057D01*
X124128095Y-58380057D02*
X124175714Y-58475295D01*
X124175714Y-58475295D02*
X124175714Y-58570533D01*
X124175714Y-58570533D02*
X124128095Y-58713390D01*
X124128095Y-58713390D02*
X123556667Y-59284819D01*
X123556667Y-59284819D02*
X124175714Y-59284819D01*
X101183333Y-90159580D02*
X101135714Y-90207200D01*
X101135714Y-90207200D02*
X100992857Y-90254819D01*
X100992857Y-90254819D02*
X100897619Y-90254819D01*
X100897619Y-90254819D02*
X100754762Y-90207200D01*
X100754762Y-90207200D02*
X100659524Y-90111961D01*
X100659524Y-90111961D02*
X100611905Y-90016723D01*
X100611905Y-90016723D02*
X100564286Y-89826247D01*
X100564286Y-89826247D02*
X100564286Y-89683390D01*
X100564286Y-89683390D02*
X100611905Y-89492914D01*
X100611905Y-89492914D02*
X100659524Y-89397676D01*
X100659524Y-89397676D02*
X100754762Y-89302438D01*
X100754762Y-89302438D02*
X100897619Y-89254819D01*
X100897619Y-89254819D02*
X100992857Y-89254819D01*
X100992857Y-89254819D02*
X101135714Y-89302438D01*
X101135714Y-89302438D02*
X101183333Y-89350057D01*
X102040476Y-89588152D02*
X102040476Y-90254819D01*
X101802381Y-89207200D02*
X101564286Y-89921485D01*
X101564286Y-89921485D02*
X102183333Y-89921485D01*
X118621667Y-65222200D02*
X118764524Y-65269819D01*
X118764524Y-65269819D02*
X119002619Y-65269819D01*
X119002619Y-65269819D02*
X119097857Y-65222200D01*
X119097857Y-65222200D02*
X119145476Y-65174580D01*
X119145476Y-65174580D02*
X119193095Y-65079342D01*
X119193095Y-65079342D02*
X119193095Y-64984104D01*
X119193095Y-64984104D02*
X119145476Y-64888866D01*
X119145476Y-64888866D02*
X119097857Y-64841247D01*
X119097857Y-64841247D02*
X119002619Y-64793628D01*
X119002619Y-64793628D02*
X118812143Y-64746009D01*
X118812143Y-64746009D02*
X118716905Y-64698390D01*
X118716905Y-64698390D02*
X118669286Y-64650771D01*
X118669286Y-64650771D02*
X118621667Y-64555533D01*
X118621667Y-64555533D02*
X118621667Y-64460295D01*
X118621667Y-64460295D02*
X118669286Y-64365057D01*
X118669286Y-64365057D02*
X118716905Y-64317438D01*
X118716905Y-64317438D02*
X118812143Y-64269819D01*
X118812143Y-64269819D02*
X119050238Y-64269819D01*
X119050238Y-64269819D02*
X119193095Y-64317438D01*
X119526429Y-64269819D02*
X119764524Y-65269819D01*
X119764524Y-65269819D02*
X119955000Y-64555533D01*
X119955000Y-64555533D02*
X120145476Y-65269819D01*
X120145476Y-65269819D02*
X120383572Y-64269819D01*
X120669286Y-64269819D02*
X121288333Y-64269819D01*
X121288333Y-64269819D02*
X120955000Y-64650771D01*
X120955000Y-64650771D02*
X121097857Y-64650771D01*
X121097857Y-64650771D02*
X121193095Y-64698390D01*
X121193095Y-64698390D02*
X121240714Y-64746009D01*
X121240714Y-64746009D02*
X121288333Y-64841247D01*
X121288333Y-64841247D02*
X121288333Y-65079342D01*
X121288333Y-65079342D02*
X121240714Y-65174580D01*
X121240714Y-65174580D02*
X121193095Y-65222200D01*
X121193095Y-65222200D02*
X121097857Y-65269819D01*
X121097857Y-65269819D02*
X120812143Y-65269819D01*
X120812143Y-65269819D02*
X120716905Y-65222200D01*
X120716905Y-65222200D02*
X120669286Y-65174580D01*
X110204761Y-98274819D02*
X109871428Y-97798628D01*
X109633333Y-98274819D02*
X109633333Y-97274819D01*
X109633333Y-97274819D02*
X110014285Y-97274819D01*
X110014285Y-97274819D02*
X110109523Y-97322438D01*
X110109523Y-97322438D02*
X110157142Y-97370057D01*
X110157142Y-97370057D02*
X110204761Y-97465295D01*
X110204761Y-97465295D02*
X110204761Y-97608152D01*
X110204761Y-97608152D02*
X110157142Y-97703390D01*
X110157142Y-97703390D02*
X110109523Y-97751009D01*
X110109523Y-97751009D02*
X110014285Y-97798628D01*
X110014285Y-97798628D02*
X109633333Y-97798628D01*
X110490476Y-97274819D02*
X110823809Y-98274819D01*
X110823809Y-98274819D02*
X111157142Y-97274819D01*
X112014285Y-98274819D02*
X111442857Y-98274819D01*
X111728571Y-98274819D02*
X111728571Y-97274819D01*
X111728571Y-97274819D02*
X111633333Y-97417676D01*
X111633333Y-97417676D02*
X111538095Y-97512914D01*
X111538095Y-97512914D02*
X111442857Y-97560533D01*
%TO.C,J1*%
D12*
X147810000Y-59740000D02*
X147810000Y-68300000D01*
X147810000Y-59740000D02*
X145300000Y-59740000D01*
X145500000Y-71460000D02*
X134280800Y-71460000D01*
X142300000Y-59740000D02*
X134280800Y-59740000D01*
%TO.C,U1*%
D13*
X138386000Y-90815000D02*
X138386000Y-104785000D01*
X140291000Y-88910000D02*
X157436000Y-88910000D01*
X140291000Y-106690000D02*
X157436000Y-106690000D01*
D14*
X159341000Y-104784999D02*
X159341000Y-90815001D01*
D13*
X159341000Y-104784999D02*
X159341000Y-90815001D01*
X159341001Y-93305000D02*
X160251272Y-93308728D01*
X160251000Y-102304000D02*
X159341001Y-102304000D01*
X160751001Y-93808728D02*
X160751001Y-101804000D01*
X138386000Y-90815000D02*
G75*
G02*
X140291000Y-88910000I1905001J-1D01*
G01*
X140291000Y-106690000D02*
G75*
G02*
X138386000Y-104785000I1J1905001D01*
G01*
X157436000Y-88910000D02*
G75*
G02*
X159341000Y-90815001I0J-1905000D01*
G01*
X159341000Y-104784999D02*
G75*
G02*
X157436000Y-106690000I-1905000J-1D01*
G01*
X160251272Y-93308728D02*
G75*
G02*
X160750972Y-93808728I-272J-499972D01*
G01*
X160751001Y-101804000D02*
G75*
G02*
X160251000Y-102304001I-500001J0D01*
G01*
D15*
X158472000Y-89992999D02*
G75*
G02*
X157968000Y-89992999I-252000J0D01*
G01*
X157968000Y-89992999D02*
G75*
G02*
X158472000Y-89992999I252000J0D01*
G01*
X159352000Y-88850000D02*
G75*
G02*
X158848000Y-88850000I-252000J0D01*
G01*
X158848000Y-88850000D02*
G75*
G02*
X159352000Y-88850000I252000J0D01*
G01*
%TO.C,C2*%
D12*
X104620000Y-75600000D02*
G75*
G02*
X98080000Y-75600000I-3270000J0D01*
G01*
X98080000Y-75600000D02*
G75*
G02*
X104620000Y-75600000I3270000J0D01*
G01*
X104590000Y-75198000D02*
X104590000Y-76002000D01*
X104550000Y-74967000D02*
X104550000Y-76233000D01*
X104510000Y-74799000D02*
X104510000Y-76401000D01*
X104470000Y-74661000D02*
X104470000Y-76539000D01*
X104430000Y-74542000D02*
X104430000Y-76658000D01*
X104390000Y-74435000D02*
X104390000Y-76765000D01*
X104350000Y-74339000D02*
X104350000Y-76861000D01*
X104310000Y-74250000D02*
X104310000Y-76950000D01*
X104270000Y-74168000D02*
X104270000Y-77032000D01*
X104230000Y-74091000D02*
X104230000Y-77109000D01*
X104190000Y-74019000D02*
X104190000Y-77181000D01*
X104150000Y-73951000D02*
X104150000Y-77249000D01*
X104110000Y-73886000D02*
X104110000Y-77314000D01*
X104070000Y-73825000D02*
X104070000Y-77375000D01*
X104030000Y-73766000D02*
X104030000Y-77434000D01*
X103990000Y-73710000D02*
X103990000Y-77490000D01*
X103950000Y-73657000D02*
X103950000Y-77543000D01*
X103910000Y-73605000D02*
X103910000Y-77595000D01*
X103870000Y-73556000D02*
X103870000Y-77644000D01*
X103830000Y-73509000D02*
X103830000Y-77691000D01*
X103790000Y-73463000D02*
X103790000Y-77737000D01*
X103750000Y-73419000D02*
X103750000Y-77781000D01*
X103710000Y-73377000D02*
X103710000Y-77823000D01*
X103670000Y-73336000D02*
X103670000Y-77864000D01*
X103630000Y-76640000D02*
X103630000Y-77904000D01*
X103630000Y-73296000D02*
X103630000Y-74560000D01*
X103590000Y-76640000D02*
X103590000Y-77942000D01*
X103590000Y-73258000D02*
X103590000Y-74560000D01*
X103550000Y-76640000D02*
X103550000Y-77979000D01*
X103550000Y-73221000D02*
X103550000Y-74560000D01*
X103510000Y-76640000D02*
X103510000Y-78015000D01*
X103510000Y-73185000D02*
X103510000Y-74560000D01*
X103470000Y-76640000D02*
X103470000Y-78050000D01*
X103470000Y-73150000D02*
X103470000Y-74560000D01*
X103430000Y-76640000D02*
X103430000Y-78083000D01*
X103430000Y-73117000D02*
X103430000Y-74560000D01*
X103390000Y-76640000D02*
X103390000Y-78116000D01*
X103390000Y-73084000D02*
X103390000Y-74560000D01*
X103350000Y-76640000D02*
X103350000Y-78147000D01*
X103350000Y-73053000D02*
X103350000Y-74560000D01*
X103310000Y-76640000D02*
X103310000Y-78177000D01*
X103310000Y-73023000D02*
X103310000Y-74560000D01*
X103270000Y-76640000D02*
X103270000Y-78207000D01*
X103270000Y-72993000D02*
X103270000Y-74560000D01*
X103230000Y-76640000D02*
X103230000Y-78236000D01*
X103230000Y-72964000D02*
X103230000Y-74560000D01*
X103190000Y-76640000D02*
X103190000Y-78263000D01*
X103190000Y-72937000D02*
X103190000Y-74560000D01*
X103150000Y-76640000D02*
X103150000Y-78290000D01*
X103150000Y-72910000D02*
X103150000Y-74560000D01*
X103110000Y-76640000D02*
X103110000Y-78316000D01*
X103110000Y-72884000D02*
X103110000Y-74560000D01*
X103070000Y-76640000D02*
X103070000Y-78341000D01*
X103070000Y-72859000D02*
X103070000Y-74560000D01*
X103030000Y-76640000D02*
X103030000Y-78365000D01*
X103030000Y-72835000D02*
X103030000Y-74560000D01*
X102990000Y-76640000D02*
X102990000Y-78389000D01*
X102990000Y-72811000D02*
X102990000Y-74560000D01*
X102950000Y-76640000D02*
X102950000Y-78412000D01*
X102950000Y-72788000D02*
X102950000Y-74560000D01*
X102910000Y-76640000D02*
X102910000Y-78434000D01*
X102910000Y-72766000D02*
X102910000Y-74560000D01*
X102870000Y-76640000D02*
X102870000Y-78455000D01*
X102870000Y-72745000D02*
X102870000Y-74560000D01*
X102830000Y-76640000D02*
X102830000Y-78476000D01*
X102830000Y-72724000D02*
X102830000Y-74560000D01*
X102790000Y-76640000D02*
X102790000Y-78496000D01*
X102790000Y-72704000D02*
X102790000Y-74560000D01*
X102750000Y-76640000D02*
X102750000Y-78515000D01*
X102750000Y-72685000D02*
X102750000Y-74560000D01*
X102710000Y-76640000D02*
X102710000Y-78534000D01*
X102710000Y-72666000D02*
X102710000Y-74560000D01*
X102670000Y-76640000D02*
X102670000Y-78552000D01*
X102670000Y-72648000D02*
X102670000Y-74560000D01*
X102630000Y-76640000D02*
X102630000Y-78569000D01*
X102630000Y-72631000D02*
X102630000Y-74560000D01*
X102590000Y-76640000D02*
X102590000Y-78586000D01*
X102590000Y-72614000D02*
X102590000Y-74560000D01*
X102550000Y-76640000D02*
X102550000Y-78602000D01*
X102550000Y-72598000D02*
X102550000Y-74560000D01*
X102510000Y-76640000D02*
X102510000Y-78617000D01*
X102510000Y-72583000D02*
X102510000Y-74560000D01*
X102470000Y-76640000D02*
X102470000Y-78632000D01*
X102470000Y-72568000D02*
X102470000Y-74560000D01*
X102430000Y-76640000D02*
X102430000Y-78647000D01*
X102430000Y-72553000D02*
X102430000Y-74560000D01*
X102390000Y-76640000D02*
X102390000Y-78660000D01*
X102390000Y-72540000D02*
X102390000Y-74560000D01*
X102350000Y-76640000D02*
X102350000Y-78673000D01*
X102350000Y-72527000D02*
X102350000Y-74560000D01*
X102310000Y-76640000D02*
X102310000Y-78686000D01*
X102310000Y-72514000D02*
X102310000Y-74560000D01*
X102270000Y-76640000D02*
X102270000Y-78698000D01*
X102270000Y-72502000D02*
X102270000Y-74560000D01*
X102230000Y-76640000D02*
X102230000Y-78709000D01*
X102230000Y-72491000D02*
X102230000Y-74560000D01*
X102190000Y-76640000D02*
X102190000Y-78720000D01*
X102190000Y-72480000D02*
X102190000Y-74560000D01*
X102150000Y-76640000D02*
X102150000Y-78731000D01*
X102150000Y-72469000D02*
X102150000Y-74560000D01*
X102110000Y-76640000D02*
X102110000Y-78740000D01*
X102110000Y-72460000D02*
X102110000Y-74560000D01*
X102070000Y-76640000D02*
X102070000Y-78750000D01*
X102070000Y-72450000D02*
X102070000Y-74560000D01*
X102030000Y-76640000D02*
X102030000Y-78759000D01*
X102030000Y-72441000D02*
X102030000Y-74560000D01*
X101990000Y-76640000D02*
X101990000Y-78767000D01*
X101990000Y-72433000D02*
X101990000Y-74560000D01*
X101950000Y-76640000D02*
X101950000Y-78774000D01*
X101950000Y-72426000D02*
X101950000Y-74560000D01*
X101910000Y-76640000D02*
X101910000Y-78782000D01*
X101910000Y-72418000D02*
X101910000Y-74560000D01*
X101870000Y-76640000D02*
X101870000Y-78788000D01*
X101870000Y-72412000D02*
X101870000Y-74560000D01*
X101830000Y-76640000D02*
X101830000Y-78795000D01*
X101830000Y-72405000D02*
X101830000Y-74560000D01*
X101790000Y-76640000D02*
X101790000Y-78800000D01*
X101790000Y-72400000D02*
X101790000Y-74560000D01*
X101750000Y-76640000D02*
X101750000Y-78805000D01*
X101750000Y-72395000D02*
X101750000Y-74560000D01*
X101710000Y-76640000D02*
X101710000Y-78810000D01*
X101710000Y-72390000D02*
X101710000Y-74560000D01*
X101670000Y-76640000D02*
X101670000Y-78814000D01*
X101670000Y-72386000D02*
X101670000Y-74560000D01*
X101630000Y-76640000D02*
X101630000Y-78818000D01*
X101630000Y-72382000D02*
X101630000Y-74560000D01*
X101590000Y-76640000D02*
X101590000Y-78821000D01*
X101590000Y-72379000D02*
X101590000Y-74560000D01*
X101550000Y-72376000D02*
X101550000Y-78824000D01*
X101510000Y-72374000D02*
X101510000Y-78826000D01*
X101470000Y-72372000D02*
X101470000Y-78828000D01*
X101430000Y-72371000D02*
X101430000Y-78829000D01*
X101390000Y-72370000D02*
X101390000Y-78830000D01*
X101350000Y-72370000D02*
X101350000Y-78830000D01*
X98164759Y-73446000D02*
X98164759Y-74076000D01*
X97849759Y-73761000D02*
X98479759Y-73761000D01*
%TO.C,SW1*%
X129900000Y-74700000D02*
X129900000Y-76900000D01*
X129900000Y-85100000D02*
X129900000Y-87300000D01*
X129900000Y-87300000D02*
X134700000Y-87300000D01*
X134700000Y-74700000D02*
X129900000Y-74700000D01*
X138500000Y-74700000D02*
X143300000Y-74700000D01*
X143300000Y-74700000D02*
X143300000Y-77500000D01*
X143300000Y-84500000D02*
X143300000Y-87300000D01*
X143300000Y-87300000D02*
X138500000Y-87300000D01*
%TO.C,J5*%
X113985000Y-65815000D02*
X115365000Y-65815000D01*
X113985000Y-67195000D02*
X113985000Y-65815000D01*
X113985000Y-68465000D02*
X113985000Y-71115000D01*
X113985000Y-68465000D02*
X116745000Y-68465000D01*
X113985000Y-71115000D02*
X116745000Y-71115000D01*
X116745000Y-68465000D02*
X116745000Y-71115000D01*
%TO.C,C5*%
X97967380Y-101361000D02*
X98597380Y-101361000D01*
X98282380Y-101046000D02*
X98282380Y-101676000D01*
X101467621Y-99970000D02*
X101467621Y-106430000D01*
X101507621Y-99970000D02*
X101507621Y-106430000D01*
X101547621Y-99971000D02*
X101547621Y-106429000D01*
X101587621Y-99972000D02*
X101587621Y-106428000D01*
X101627621Y-99974000D02*
X101627621Y-106426000D01*
X101667621Y-99976000D02*
X101667621Y-106424000D01*
X101707621Y-99979000D02*
X101707621Y-102160000D01*
X101707621Y-104240000D02*
X101707621Y-106421000D01*
X101747621Y-99982000D02*
X101747621Y-102160000D01*
X101747621Y-104240000D02*
X101747621Y-106418000D01*
X101787621Y-99986000D02*
X101787621Y-102160000D01*
X101787621Y-104240000D02*
X101787621Y-106414000D01*
X101827621Y-99990000D02*
X101827621Y-102160000D01*
X101827621Y-104240000D02*
X101827621Y-106410000D01*
X101867621Y-99995000D02*
X101867621Y-102160000D01*
X101867621Y-104240000D02*
X101867621Y-106405000D01*
X101907621Y-100000000D02*
X101907621Y-102160000D01*
X101907621Y-104240000D02*
X101907621Y-106400000D01*
X101947621Y-100005000D02*
X101947621Y-102160000D01*
X101947621Y-104240000D02*
X101947621Y-106395000D01*
X101987621Y-100012000D02*
X101987621Y-102160000D01*
X101987621Y-104240000D02*
X101987621Y-106388000D01*
X102027621Y-100018000D02*
X102027621Y-102160000D01*
X102027621Y-104240000D02*
X102027621Y-106382000D01*
X102067621Y-100026000D02*
X102067621Y-102160000D01*
X102067621Y-104240000D02*
X102067621Y-106374000D01*
X102107621Y-100033000D02*
X102107621Y-102160000D01*
X102107621Y-104240000D02*
X102107621Y-106367000D01*
X102147621Y-100041000D02*
X102147621Y-102160000D01*
X102147621Y-104240000D02*
X102147621Y-106359000D01*
X102187621Y-100050000D02*
X102187621Y-102160000D01*
X102187621Y-104240000D02*
X102187621Y-106350000D01*
X102227621Y-100060000D02*
X102227621Y-102160000D01*
X102227621Y-104240000D02*
X102227621Y-106340000D01*
X102267621Y-100069000D02*
X102267621Y-102160000D01*
X102267621Y-104240000D02*
X102267621Y-106331000D01*
X102307621Y-100080000D02*
X102307621Y-102160000D01*
X102307621Y-104240000D02*
X102307621Y-106320000D01*
X102347621Y-100091000D02*
X102347621Y-102160000D01*
X102347621Y-104240000D02*
X102347621Y-106309000D01*
X102387621Y-100102000D02*
X102387621Y-102160000D01*
X102387621Y-104240000D02*
X102387621Y-106298000D01*
X102427621Y-100114000D02*
X102427621Y-102160000D01*
X102427621Y-104240000D02*
X102427621Y-106286000D01*
X102467621Y-100127000D02*
X102467621Y-102160000D01*
X102467621Y-104240000D02*
X102467621Y-106273000D01*
X102507621Y-100140000D02*
X102507621Y-102160000D01*
X102507621Y-104240000D02*
X102507621Y-106260000D01*
X102547621Y-100153000D02*
X102547621Y-102160000D01*
X102547621Y-104240000D02*
X102547621Y-106247000D01*
X102587621Y-100168000D02*
X102587621Y-102160000D01*
X102587621Y-104240000D02*
X102587621Y-106232000D01*
X102627621Y-100183000D02*
X102627621Y-102160000D01*
X102627621Y-104240000D02*
X102627621Y-106217000D01*
X102667621Y-100198000D02*
X102667621Y-102160000D01*
X102667621Y-104240000D02*
X102667621Y-106202000D01*
X102707621Y-100214000D02*
X102707621Y-102160000D01*
X102707621Y-104240000D02*
X102707621Y-106186000D01*
X102747621Y-100231000D02*
X102747621Y-102160000D01*
X102747621Y-104240000D02*
X102747621Y-106169000D01*
X102787621Y-100248000D02*
X102787621Y-102160000D01*
X102787621Y-104240000D02*
X102787621Y-106152000D01*
X102827621Y-100266000D02*
X102827621Y-102160000D01*
X102827621Y-104240000D02*
X102827621Y-106134000D01*
X102867621Y-100285000D02*
X102867621Y-102160000D01*
X102867621Y-104240000D02*
X102867621Y-106115000D01*
X102907621Y-100304000D02*
X102907621Y-102160000D01*
X102907621Y-104240000D02*
X102907621Y-106096000D01*
X102947621Y-100324000D02*
X102947621Y-102160000D01*
X102947621Y-104240000D02*
X102947621Y-106076000D01*
X102987621Y-100345000D02*
X102987621Y-102160000D01*
X102987621Y-104240000D02*
X102987621Y-106055000D01*
X103027621Y-100366000D02*
X103027621Y-102160000D01*
X103027621Y-104240000D02*
X103027621Y-106034000D01*
X103067621Y-100388000D02*
X103067621Y-102160000D01*
X103067621Y-104240000D02*
X103067621Y-106012000D01*
X103107621Y-100411000D02*
X103107621Y-102160000D01*
X103107621Y-104240000D02*
X103107621Y-105989000D01*
X103147621Y-100435000D02*
X103147621Y-102160000D01*
X103147621Y-104240000D02*
X103147621Y-105965000D01*
X103187621Y-100459000D02*
X103187621Y-102160000D01*
X103187621Y-104240000D02*
X103187621Y-105941000D01*
X103227621Y-100484000D02*
X103227621Y-102160000D01*
X103227621Y-104240000D02*
X103227621Y-105916000D01*
X103267621Y-100510000D02*
X103267621Y-102160000D01*
X103267621Y-104240000D02*
X103267621Y-105890000D01*
X103307621Y-100537000D02*
X103307621Y-102160000D01*
X103307621Y-104240000D02*
X103307621Y-105863000D01*
X103347621Y-100564000D02*
X103347621Y-102160000D01*
X103347621Y-104240000D02*
X103347621Y-105836000D01*
X103387621Y-100593000D02*
X103387621Y-102160000D01*
X103387621Y-104240000D02*
X103387621Y-105807000D01*
X103427621Y-100623000D02*
X103427621Y-102160000D01*
X103427621Y-104240000D02*
X103427621Y-105777000D01*
X103467621Y-100653000D02*
X103467621Y-102160000D01*
X103467621Y-104240000D02*
X103467621Y-105747000D01*
X103507621Y-100684000D02*
X103507621Y-102160000D01*
X103507621Y-104240000D02*
X103507621Y-105716000D01*
X103547621Y-100717000D02*
X103547621Y-102160000D01*
X103547621Y-104240000D02*
X103547621Y-105683000D01*
X103587621Y-100750000D02*
X103587621Y-102160000D01*
X103587621Y-104240000D02*
X103587621Y-105650000D01*
X103627621Y-100785000D02*
X103627621Y-102160000D01*
X103627621Y-104240000D02*
X103627621Y-105615000D01*
X103667621Y-100821000D02*
X103667621Y-102160000D01*
X103667621Y-104240000D02*
X103667621Y-105579000D01*
X103707621Y-100858000D02*
X103707621Y-102160000D01*
X103707621Y-104240000D02*
X103707621Y-105542000D01*
X103747621Y-100896000D02*
X103747621Y-102160000D01*
X103747621Y-104240000D02*
X103747621Y-105504000D01*
X103787621Y-100936000D02*
X103787621Y-105464000D01*
X103827621Y-100977000D02*
X103827621Y-105423000D01*
X103867621Y-101019000D02*
X103867621Y-105381000D01*
X103907621Y-101063000D02*
X103907621Y-105337000D01*
X103947621Y-101109000D02*
X103947621Y-105291000D01*
X103987621Y-101156000D02*
X103987621Y-105244000D01*
X104027621Y-101205000D02*
X104027621Y-105195000D01*
X104067621Y-101257000D02*
X104067621Y-105143000D01*
X104107621Y-101310000D02*
X104107621Y-105090000D01*
X104147621Y-101366000D02*
X104147621Y-105034000D01*
X104187621Y-101425000D02*
X104187621Y-104975000D01*
X104227621Y-101486000D02*
X104227621Y-104914000D01*
X104267621Y-101551000D02*
X104267621Y-104849000D01*
X104307621Y-101619000D02*
X104307621Y-104781000D01*
X104347621Y-101691000D02*
X104347621Y-104709000D01*
X104387621Y-101768000D02*
X104387621Y-104632000D01*
X104427621Y-101850000D02*
X104427621Y-104550000D01*
X104467621Y-101939000D02*
X104467621Y-104461000D01*
X104507621Y-102035000D02*
X104507621Y-104365000D01*
X104547621Y-102142000D02*
X104547621Y-104258000D01*
X104587621Y-102261000D02*
X104587621Y-104139000D01*
X104627621Y-102399000D02*
X104627621Y-104001000D01*
X104667621Y-102567000D02*
X104667621Y-103833000D01*
X104707621Y-102798000D02*
X104707621Y-103602000D01*
X104737621Y-103200000D02*
G75*
G02*
X98197621Y-103200000I-3270000J0D01*
G01*
X98197621Y-103200000D02*
G75*
G02*
X104737621Y-103200000I3270000J0D01*
G01*
%TO.C,J4*%
X109395000Y-65815000D02*
X110775000Y-65815000D01*
X109395000Y-67195000D02*
X109395000Y-65815000D01*
X109395000Y-68465000D02*
X109395000Y-71115000D01*
X109395000Y-68465000D02*
X112155000Y-68465000D01*
X109395000Y-71115000D02*
X112155000Y-71115000D01*
X112155000Y-68465000D02*
X112155000Y-71115000D01*
%TO.C,U3*%
X110940000Y-78650000D02*
X110940000Y-88930000D01*
X110940000Y-88930000D02*
X116240000Y-88930000D01*
X112590000Y-78650000D02*
X110940000Y-78650000D01*
X116240000Y-78650000D02*
X114590000Y-78650000D01*
X116240000Y-88930000D02*
X116240000Y-78650000D01*
X114590000Y-78650000D02*
G75*
G02*
X112590000Y-78650000I-1000000J0D01*
G01*
%TO.C,C3*%
X97967380Y-83161000D02*
X98597380Y-83161000D01*
X98282380Y-82846000D02*
X98282380Y-83476000D01*
X101467621Y-81770000D02*
X101467621Y-88230000D01*
X101507621Y-81770000D02*
X101507621Y-88230000D01*
X101547621Y-81771000D02*
X101547621Y-88229000D01*
X101587621Y-81772000D02*
X101587621Y-88228000D01*
X101627621Y-81774000D02*
X101627621Y-88226000D01*
X101667621Y-81776000D02*
X101667621Y-88224000D01*
X101707621Y-81779000D02*
X101707621Y-83960000D01*
X101707621Y-86040000D02*
X101707621Y-88221000D01*
X101747621Y-81782000D02*
X101747621Y-83960000D01*
X101747621Y-86040000D02*
X101747621Y-88218000D01*
X101787621Y-81786000D02*
X101787621Y-83960000D01*
X101787621Y-86040000D02*
X101787621Y-88214000D01*
X101827621Y-81790000D02*
X101827621Y-83960000D01*
X101827621Y-86040000D02*
X101827621Y-88210000D01*
X101867621Y-81795000D02*
X101867621Y-83960000D01*
X101867621Y-86040000D02*
X101867621Y-88205000D01*
X101907621Y-81800000D02*
X101907621Y-83960000D01*
X101907621Y-86040000D02*
X101907621Y-88200000D01*
X101947621Y-81805000D02*
X101947621Y-83960000D01*
X101947621Y-86040000D02*
X101947621Y-88195000D01*
X101987621Y-81812000D02*
X101987621Y-83960000D01*
X101987621Y-86040000D02*
X101987621Y-88188000D01*
X102027621Y-81818000D02*
X102027621Y-83960000D01*
X102027621Y-86040000D02*
X102027621Y-88182000D01*
X102067621Y-81826000D02*
X102067621Y-83960000D01*
X102067621Y-86040000D02*
X102067621Y-88174000D01*
X102107621Y-81833000D02*
X102107621Y-83960000D01*
X102107621Y-86040000D02*
X102107621Y-88167000D01*
X102147621Y-81841000D02*
X102147621Y-83960000D01*
X102147621Y-86040000D02*
X102147621Y-88159000D01*
X102187621Y-81850000D02*
X102187621Y-83960000D01*
X102187621Y-86040000D02*
X102187621Y-88150000D01*
X102227621Y-81860000D02*
X102227621Y-83960000D01*
X102227621Y-86040000D02*
X102227621Y-88140000D01*
X102267621Y-81869000D02*
X102267621Y-83960000D01*
X102267621Y-86040000D02*
X102267621Y-88131000D01*
X102307621Y-81880000D02*
X102307621Y-83960000D01*
X102307621Y-86040000D02*
X102307621Y-88120000D01*
X102347621Y-81891000D02*
X102347621Y-83960000D01*
X102347621Y-86040000D02*
X102347621Y-88109000D01*
X102387621Y-81902000D02*
X102387621Y-83960000D01*
X102387621Y-86040000D02*
X102387621Y-88098000D01*
X102427621Y-81914000D02*
X102427621Y-83960000D01*
X102427621Y-86040000D02*
X102427621Y-88086000D01*
X102467621Y-81927000D02*
X102467621Y-83960000D01*
X102467621Y-86040000D02*
X102467621Y-88073000D01*
X102507621Y-81940000D02*
X102507621Y-83960000D01*
X102507621Y-86040000D02*
X102507621Y-88060000D01*
X102547621Y-81953000D02*
X102547621Y-83960000D01*
X102547621Y-86040000D02*
X102547621Y-88047000D01*
X102587621Y-81968000D02*
X102587621Y-83960000D01*
X102587621Y-86040000D02*
X102587621Y-88032000D01*
X102627621Y-81983000D02*
X102627621Y-83960000D01*
X102627621Y-86040000D02*
X102627621Y-88017000D01*
X102667621Y-81998000D02*
X102667621Y-83960000D01*
X102667621Y-86040000D02*
X102667621Y-88002000D01*
X102707621Y-82014000D02*
X102707621Y-83960000D01*
X102707621Y-86040000D02*
X102707621Y-87986000D01*
X102747621Y-82031000D02*
X102747621Y-83960000D01*
X102747621Y-86040000D02*
X102747621Y-87969000D01*
X102787621Y-82048000D02*
X102787621Y-83960000D01*
X102787621Y-86040000D02*
X102787621Y-87952000D01*
X102827621Y-82066000D02*
X102827621Y-83960000D01*
X102827621Y-86040000D02*
X102827621Y-87934000D01*
X102867621Y-82085000D02*
X102867621Y-83960000D01*
X102867621Y-86040000D02*
X102867621Y-87915000D01*
X102907621Y-82104000D02*
X102907621Y-83960000D01*
X102907621Y-86040000D02*
X102907621Y-87896000D01*
X102947621Y-82124000D02*
X102947621Y-83960000D01*
X102947621Y-86040000D02*
X102947621Y-87876000D01*
X102987621Y-82145000D02*
X102987621Y-83960000D01*
X102987621Y-86040000D02*
X102987621Y-87855000D01*
X103027621Y-82166000D02*
X103027621Y-83960000D01*
X103027621Y-86040000D02*
X103027621Y-87834000D01*
X103067621Y-82188000D02*
X103067621Y-83960000D01*
X103067621Y-86040000D02*
X103067621Y-87812000D01*
X103107621Y-82211000D02*
X103107621Y-83960000D01*
X103107621Y-86040000D02*
X103107621Y-87789000D01*
X103147621Y-82235000D02*
X103147621Y-83960000D01*
X103147621Y-86040000D02*
X103147621Y-87765000D01*
X103187621Y-82259000D02*
X103187621Y-83960000D01*
X103187621Y-86040000D02*
X103187621Y-87741000D01*
X103227621Y-82284000D02*
X103227621Y-83960000D01*
X103227621Y-86040000D02*
X103227621Y-87716000D01*
X103267621Y-82310000D02*
X103267621Y-83960000D01*
X103267621Y-86040000D02*
X103267621Y-87690000D01*
X103307621Y-82337000D02*
X103307621Y-83960000D01*
X103307621Y-86040000D02*
X103307621Y-87663000D01*
X103347621Y-82364000D02*
X103347621Y-83960000D01*
X103347621Y-86040000D02*
X103347621Y-87636000D01*
X103387621Y-82393000D02*
X103387621Y-83960000D01*
X103387621Y-86040000D02*
X103387621Y-87607000D01*
X103427621Y-82423000D02*
X103427621Y-83960000D01*
X103427621Y-86040000D02*
X103427621Y-87577000D01*
X103467621Y-82453000D02*
X103467621Y-83960000D01*
X103467621Y-86040000D02*
X103467621Y-87547000D01*
X103507621Y-82484000D02*
X103507621Y-83960000D01*
X103507621Y-86040000D02*
X103507621Y-87516000D01*
X103547621Y-82517000D02*
X103547621Y-83960000D01*
X103547621Y-86040000D02*
X103547621Y-87483000D01*
X103587621Y-82550000D02*
X103587621Y-83960000D01*
X103587621Y-86040000D02*
X103587621Y-87450000D01*
X103627621Y-82585000D02*
X103627621Y-83960000D01*
X103627621Y-86040000D02*
X103627621Y-87415000D01*
X103667621Y-82621000D02*
X103667621Y-83960000D01*
X103667621Y-86040000D02*
X103667621Y-87379000D01*
X103707621Y-82658000D02*
X103707621Y-83960000D01*
X103707621Y-86040000D02*
X103707621Y-87342000D01*
X103747621Y-82696000D02*
X103747621Y-83960000D01*
X103747621Y-86040000D02*
X103747621Y-87304000D01*
X103787621Y-82736000D02*
X103787621Y-87264000D01*
X103827621Y-82777000D02*
X103827621Y-87223000D01*
X103867621Y-82819000D02*
X103867621Y-87181000D01*
X103907621Y-82863000D02*
X103907621Y-87137000D01*
X103947621Y-82909000D02*
X103947621Y-87091000D01*
X103987621Y-82956000D02*
X103987621Y-87044000D01*
X104027621Y-83005000D02*
X104027621Y-86995000D01*
X104067621Y-83057000D02*
X104067621Y-86943000D01*
X104107621Y-83110000D02*
X104107621Y-86890000D01*
X104147621Y-83166000D02*
X104147621Y-86834000D01*
X104187621Y-83225000D02*
X104187621Y-86775000D01*
X104227621Y-83286000D02*
X104227621Y-86714000D01*
X104267621Y-83351000D02*
X104267621Y-86649000D01*
X104307621Y-83419000D02*
X104307621Y-86581000D01*
X104347621Y-83491000D02*
X104347621Y-86509000D01*
X104387621Y-83568000D02*
X104387621Y-86432000D01*
X104427621Y-83650000D02*
X104427621Y-86350000D01*
X104467621Y-83739000D02*
X104467621Y-86261000D01*
X104507621Y-83835000D02*
X104507621Y-86165000D01*
X104547621Y-83942000D02*
X104547621Y-86058000D01*
X104587621Y-84061000D02*
X104587621Y-85939000D01*
X104627621Y-84199000D02*
X104627621Y-85801000D01*
X104667621Y-84367000D02*
X104667621Y-85633000D01*
X104707621Y-84598000D02*
X104707621Y-85402000D01*
X104737621Y-85000000D02*
G75*
G02*
X98197621Y-85000000I-3270000J0D01*
G01*
X98197621Y-85000000D02*
G75*
G02*
X104737621Y-85000000I3270000J0D01*
G01*
%TO.C,C1*%
X97967380Y-64161000D02*
X98597380Y-64161000D01*
X98282380Y-63846000D02*
X98282380Y-64476000D01*
X101467621Y-62770000D02*
X101467621Y-69230000D01*
X101507621Y-62770000D02*
X101507621Y-69230000D01*
X101547621Y-62771000D02*
X101547621Y-69229000D01*
X101587621Y-62772000D02*
X101587621Y-69228000D01*
X101627621Y-62774000D02*
X101627621Y-69226000D01*
X101667621Y-62776000D02*
X101667621Y-69224000D01*
X101707621Y-62779000D02*
X101707621Y-64960000D01*
X101707621Y-67040000D02*
X101707621Y-69221000D01*
X101747621Y-62782000D02*
X101747621Y-64960000D01*
X101747621Y-67040000D02*
X101747621Y-69218000D01*
X101787621Y-62786000D02*
X101787621Y-64960000D01*
X101787621Y-67040000D02*
X101787621Y-69214000D01*
X101827621Y-62790000D02*
X101827621Y-64960000D01*
X101827621Y-67040000D02*
X101827621Y-69210000D01*
X101867621Y-62795000D02*
X101867621Y-64960000D01*
X101867621Y-67040000D02*
X101867621Y-69205000D01*
X101907621Y-62800000D02*
X101907621Y-64960000D01*
X101907621Y-67040000D02*
X101907621Y-69200000D01*
X101947621Y-62805000D02*
X101947621Y-64960000D01*
X101947621Y-67040000D02*
X101947621Y-69195000D01*
X101987621Y-62812000D02*
X101987621Y-64960000D01*
X101987621Y-67040000D02*
X101987621Y-69188000D01*
X102027621Y-62818000D02*
X102027621Y-64960000D01*
X102027621Y-67040000D02*
X102027621Y-69182000D01*
X102067621Y-62826000D02*
X102067621Y-64960000D01*
X102067621Y-67040000D02*
X102067621Y-69174000D01*
X102107621Y-62833000D02*
X102107621Y-64960000D01*
X102107621Y-67040000D02*
X102107621Y-69167000D01*
X102147621Y-62841000D02*
X102147621Y-64960000D01*
X102147621Y-67040000D02*
X102147621Y-69159000D01*
X102187621Y-62850000D02*
X102187621Y-64960000D01*
X102187621Y-67040000D02*
X102187621Y-69150000D01*
X102227621Y-62860000D02*
X102227621Y-64960000D01*
X102227621Y-67040000D02*
X102227621Y-69140000D01*
X102267621Y-62869000D02*
X102267621Y-64960000D01*
X102267621Y-67040000D02*
X102267621Y-69131000D01*
X102307621Y-62880000D02*
X102307621Y-64960000D01*
X102307621Y-67040000D02*
X102307621Y-69120000D01*
X102347621Y-62891000D02*
X102347621Y-64960000D01*
X102347621Y-67040000D02*
X102347621Y-69109000D01*
X102387621Y-62902000D02*
X102387621Y-64960000D01*
X102387621Y-67040000D02*
X102387621Y-69098000D01*
X102427621Y-62914000D02*
X102427621Y-64960000D01*
X102427621Y-67040000D02*
X102427621Y-69086000D01*
X102467621Y-62927000D02*
X102467621Y-64960000D01*
X102467621Y-67040000D02*
X102467621Y-69073000D01*
X102507621Y-62940000D02*
X102507621Y-64960000D01*
X102507621Y-67040000D02*
X102507621Y-69060000D01*
X102547621Y-62953000D02*
X102547621Y-64960000D01*
X102547621Y-67040000D02*
X102547621Y-69047000D01*
X102587621Y-62968000D02*
X102587621Y-64960000D01*
X102587621Y-67040000D02*
X102587621Y-69032000D01*
X102627621Y-62983000D02*
X102627621Y-64960000D01*
X102627621Y-67040000D02*
X102627621Y-69017000D01*
X102667621Y-62998000D02*
X102667621Y-64960000D01*
X102667621Y-67040000D02*
X102667621Y-69002000D01*
X102707621Y-63014000D02*
X102707621Y-64960000D01*
X102707621Y-67040000D02*
X102707621Y-68986000D01*
X102747621Y-63031000D02*
X102747621Y-64960000D01*
X102747621Y-67040000D02*
X102747621Y-68969000D01*
X102787621Y-63048000D02*
X102787621Y-64960000D01*
X102787621Y-67040000D02*
X102787621Y-68952000D01*
X102827621Y-63066000D02*
X102827621Y-64960000D01*
X102827621Y-67040000D02*
X102827621Y-68934000D01*
X102867621Y-63085000D02*
X102867621Y-64960000D01*
X102867621Y-67040000D02*
X102867621Y-68915000D01*
X102907621Y-63104000D02*
X102907621Y-64960000D01*
X102907621Y-67040000D02*
X102907621Y-68896000D01*
X102947621Y-63124000D02*
X102947621Y-64960000D01*
X102947621Y-67040000D02*
X102947621Y-68876000D01*
X102987621Y-63145000D02*
X102987621Y-64960000D01*
X102987621Y-67040000D02*
X102987621Y-68855000D01*
X103027621Y-63166000D02*
X103027621Y-64960000D01*
X103027621Y-67040000D02*
X103027621Y-68834000D01*
X103067621Y-63188000D02*
X103067621Y-64960000D01*
X103067621Y-67040000D02*
X103067621Y-68812000D01*
X103107621Y-63211000D02*
X103107621Y-64960000D01*
X103107621Y-67040000D02*
X103107621Y-68789000D01*
X103147621Y-63235000D02*
X103147621Y-64960000D01*
X103147621Y-67040000D02*
X103147621Y-68765000D01*
X103187621Y-63259000D02*
X103187621Y-64960000D01*
X103187621Y-67040000D02*
X103187621Y-68741000D01*
X103227621Y-63284000D02*
X103227621Y-64960000D01*
X103227621Y-67040000D02*
X103227621Y-68716000D01*
X103267621Y-63310000D02*
X103267621Y-64960000D01*
X103267621Y-67040000D02*
X103267621Y-68690000D01*
X103307621Y-63337000D02*
X103307621Y-64960000D01*
X103307621Y-67040000D02*
X103307621Y-68663000D01*
X103347621Y-63364000D02*
X103347621Y-64960000D01*
X103347621Y-67040000D02*
X103347621Y-68636000D01*
X103387621Y-63393000D02*
X103387621Y-64960000D01*
X103387621Y-67040000D02*
X103387621Y-68607000D01*
X103427621Y-63423000D02*
X103427621Y-64960000D01*
X103427621Y-67040000D02*
X103427621Y-68577000D01*
X103467621Y-63453000D02*
X103467621Y-64960000D01*
X103467621Y-67040000D02*
X103467621Y-68547000D01*
X103507621Y-63484000D02*
X103507621Y-64960000D01*
X103507621Y-67040000D02*
X103507621Y-68516000D01*
X103547621Y-63517000D02*
X103547621Y-64960000D01*
X103547621Y-67040000D02*
X103547621Y-68483000D01*
X103587621Y-63550000D02*
X103587621Y-64960000D01*
X103587621Y-67040000D02*
X103587621Y-68450000D01*
X103627621Y-63585000D02*
X103627621Y-64960000D01*
X103627621Y-67040000D02*
X103627621Y-68415000D01*
X103667621Y-63621000D02*
X103667621Y-64960000D01*
X103667621Y-67040000D02*
X103667621Y-68379000D01*
X103707621Y-63658000D02*
X103707621Y-64960000D01*
X103707621Y-67040000D02*
X103707621Y-68342000D01*
X103747621Y-63696000D02*
X103747621Y-64960000D01*
X103747621Y-67040000D02*
X103747621Y-68304000D01*
X103787621Y-63736000D02*
X103787621Y-68264000D01*
X103827621Y-63777000D02*
X103827621Y-68223000D01*
X103867621Y-63819000D02*
X103867621Y-68181000D01*
X103907621Y-63863000D02*
X103907621Y-68137000D01*
X103947621Y-63909000D02*
X103947621Y-68091000D01*
X103987621Y-63956000D02*
X103987621Y-68044000D01*
X104027621Y-64005000D02*
X104027621Y-67995000D01*
X104067621Y-64057000D02*
X104067621Y-67943000D01*
X104107621Y-64110000D02*
X104107621Y-67890000D01*
X104147621Y-64166000D02*
X104147621Y-67834000D01*
X104187621Y-64225000D02*
X104187621Y-67775000D01*
X104227621Y-64286000D02*
X104227621Y-67714000D01*
X104267621Y-64351000D02*
X104267621Y-67649000D01*
X104307621Y-64419000D02*
X104307621Y-67581000D01*
X104347621Y-64491000D02*
X104347621Y-67509000D01*
X104387621Y-64568000D02*
X104387621Y-67432000D01*
X104427621Y-64650000D02*
X104427621Y-67350000D01*
X104467621Y-64739000D02*
X104467621Y-67261000D01*
X104507621Y-64835000D02*
X104507621Y-67165000D01*
X104547621Y-64942000D02*
X104547621Y-67058000D01*
X104587621Y-65061000D02*
X104587621Y-66939000D01*
X104627621Y-65199000D02*
X104627621Y-66801000D01*
X104667621Y-65367000D02*
X104667621Y-66633000D01*
X104707621Y-65598000D02*
X104707621Y-66402000D01*
X104737621Y-66000000D02*
G75*
G02*
X98197621Y-66000000I-3270000J0D01*
G01*
X98197621Y-66000000D02*
G75*
G02*
X104737621Y-66000000I3270000J0D01*
G01*
%TO.C,RV2*%
X130820000Y-98880000D02*
X132200000Y-98880000D01*
X130820000Y-100260000D02*
X130820000Y-98880000D01*
X130820000Y-101530000D02*
X130820000Y-106720000D01*
X130820000Y-101530000D02*
X133580000Y-101530000D01*
X130820000Y-106720000D02*
X133580000Y-106720000D01*
X133580000Y-101530000D02*
X133580000Y-106720000D01*
%TO.C,R1*%
X107730000Y-59830000D02*
X114270000Y-59830000D01*
X107730000Y-60160000D02*
X107730000Y-59830000D01*
X107730000Y-62240000D02*
X107730000Y-62570000D01*
X107730000Y-62570000D02*
X114270000Y-62570000D01*
X114270000Y-59830000D02*
X114270000Y-60160000D01*
X114270000Y-62570000D02*
X114270000Y-62240000D01*
%TO.C,R2*%
X120120000Y-59830000D02*
X126660000Y-59830000D01*
X120120000Y-60160000D02*
X120120000Y-59830000D01*
X120120000Y-62240000D02*
X120120000Y-62570000D01*
X120120000Y-62570000D02*
X126660000Y-62570000D01*
X126660000Y-59830000D02*
X126660000Y-60160000D01*
X126660000Y-62570000D02*
X126660000Y-62240000D01*
%TO.C,C4*%
X97849759Y-92361000D02*
X98479759Y-92361000D01*
X98164759Y-92046000D02*
X98164759Y-92676000D01*
X101350000Y-90970000D02*
X101350000Y-97430000D01*
X101390000Y-90970000D02*
X101390000Y-97430000D01*
X101430000Y-90971000D02*
X101430000Y-97429000D01*
X101470000Y-90972000D02*
X101470000Y-97428000D01*
X101510000Y-90974000D02*
X101510000Y-97426000D01*
X101550000Y-90976000D02*
X101550000Y-97424000D01*
X101590000Y-90979000D02*
X101590000Y-93160000D01*
X101590000Y-95240000D02*
X101590000Y-97421000D01*
X101630000Y-90982000D02*
X101630000Y-93160000D01*
X101630000Y-95240000D02*
X101630000Y-97418000D01*
X101670000Y-90986000D02*
X101670000Y-93160000D01*
X101670000Y-95240000D02*
X101670000Y-97414000D01*
X101710000Y-90990000D02*
X101710000Y-93160000D01*
X101710000Y-95240000D02*
X101710000Y-97410000D01*
X101750000Y-90995000D02*
X101750000Y-93160000D01*
X101750000Y-95240000D02*
X101750000Y-97405000D01*
X101790000Y-91000000D02*
X101790000Y-93160000D01*
X101790000Y-95240000D02*
X101790000Y-97400000D01*
X101830000Y-91005000D02*
X101830000Y-93160000D01*
X101830000Y-95240000D02*
X101830000Y-97395000D01*
X101870000Y-91012000D02*
X101870000Y-93160000D01*
X101870000Y-95240000D02*
X101870000Y-97388000D01*
X101910000Y-91018000D02*
X101910000Y-93160000D01*
X101910000Y-95240000D02*
X101910000Y-97382000D01*
X101950000Y-91026000D02*
X101950000Y-93160000D01*
X101950000Y-95240000D02*
X101950000Y-97374000D01*
X101990000Y-91033000D02*
X101990000Y-93160000D01*
X101990000Y-95240000D02*
X101990000Y-97367000D01*
X102030000Y-91041000D02*
X102030000Y-93160000D01*
X102030000Y-95240000D02*
X102030000Y-97359000D01*
X102070000Y-91050000D02*
X102070000Y-93160000D01*
X102070000Y-95240000D02*
X102070000Y-97350000D01*
X102110000Y-91060000D02*
X102110000Y-93160000D01*
X102110000Y-95240000D02*
X102110000Y-97340000D01*
X102150000Y-91069000D02*
X102150000Y-93160000D01*
X102150000Y-95240000D02*
X102150000Y-97331000D01*
X102190000Y-91080000D02*
X102190000Y-93160000D01*
X102190000Y-95240000D02*
X102190000Y-97320000D01*
X102230000Y-91091000D02*
X102230000Y-93160000D01*
X102230000Y-95240000D02*
X102230000Y-97309000D01*
X102270000Y-91102000D02*
X102270000Y-93160000D01*
X102270000Y-95240000D02*
X102270000Y-97298000D01*
X102310000Y-91114000D02*
X102310000Y-93160000D01*
X102310000Y-95240000D02*
X102310000Y-97286000D01*
X102350000Y-91127000D02*
X102350000Y-93160000D01*
X102350000Y-95240000D02*
X102350000Y-97273000D01*
X102390000Y-91140000D02*
X102390000Y-93160000D01*
X102390000Y-95240000D02*
X102390000Y-97260000D01*
X102430000Y-91153000D02*
X102430000Y-93160000D01*
X102430000Y-95240000D02*
X102430000Y-97247000D01*
X102470000Y-91168000D02*
X102470000Y-93160000D01*
X102470000Y-95240000D02*
X102470000Y-97232000D01*
X102510000Y-91183000D02*
X102510000Y-93160000D01*
X102510000Y-95240000D02*
X102510000Y-97217000D01*
X102550000Y-91198000D02*
X102550000Y-93160000D01*
X102550000Y-95240000D02*
X102550000Y-97202000D01*
X102590000Y-91214000D02*
X102590000Y-93160000D01*
X102590000Y-95240000D02*
X102590000Y-97186000D01*
X102630000Y-91231000D02*
X102630000Y-93160000D01*
X102630000Y-95240000D02*
X102630000Y-97169000D01*
X102670000Y-91248000D02*
X102670000Y-93160000D01*
X102670000Y-95240000D02*
X102670000Y-97152000D01*
X102710000Y-91266000D02*
X102710000Y-93160000D01*
X102710000Y-95240000D02*
X102710000Y-97134000D01*
X102750000Y-91285000D02*
X102750000Y-93160000D01*
X102750000Y-95240000D02*
X102750000Y-97115000D01*
X102790000Y-91304000D02*
X102790000Y-93160000D01*
X102790000Y-95240000D02*
X102790000Y-97096000D01*
X102830000Y-91324000D02*
X102830000Y-93160000D01*
X102830000Y-95240000D02*
X102830000Y-97076000D01*
X102870000Y-91345000D02*
X102870000Y-93160000D01*
X102870000Y-95240000D02*
X102870000Y-97055000D01*
X102910000Y-91366000D02*
X102910000Y-93160000D01*
X102910000Y-95240000D02*
X102910000Y-97034000D01*
X102950000Y-91388000D02*
X102950000Y-93160000D01*
X102950000Y-95240000D02*
X102950000Y-97012000D01*
X102990000Y-91411000D02*
X102990000Y-93160000D01*
X102990000Y-95240000D02*
X102990000Y-96989000D01*
X103030000Y-91435000D02*
X103030000Y-93160000D01*
X103030000Y-95240000D02*
X103030000Y-96965000D01*
X103070000Y-91459000D02*
X103070000Y-93160000D01*
X103070000Y-95240000D02*
X103070000Y-96941000D01*
X103110000Y-91484000D02*
X103110000Y-93160000D01*
X103110000Y-95240000D02*
X103110000Y-96916000D01*
X103150000Y-91510000D02*
X103150000Y-93160000D01*
X103150000Y-95240000D02*
X103150000Y-96890000D01*
X103190000Y-91537000D02*
X103190000Y-93160000D01*
X103190000Y-95240000D02*
X103190000Y-96863000D01*
X103230000Y-91564000D02*
X103230000Y-93160000D01*
X103230000Y-95240000D02*
X103230000Y-96836000D01*
X103270000Y-91593000D02*
X103270000Y-93160000D01*
X103270000Y-95240000D02*
X103270000Y-96807000D01*
X103310000Y-91623000D02*
X103310000Y-93160000D01*
X103310000Y-95240000D02*
X103310000Y-96777000D01*
X103350000Y-91653000D02*
X103350000Y-93160000D01*
X103350000Y-95240000D02*
X103350000Y-96747000D01*
X103390000Y-91684000D02*
X103390000Y-93160000D01*
X103390000Y-95240000D02*
X103390000Y-96716000D01*
X103430000Y-91717000D02*
X103430000Y-93160000D01*
X103430000Y-95240000D02*
X103430000Y-96683000D01*
X103470000Y-91750000D02*
X103470000Y-93160000D01*
X103470000Y-95240000D02*
X103470000Y-96650000D01*
X103510000Y-91785000D02*
X103510000Y-93160000D01*
X103510000Y-95240000D02*
X103510000Y-96615000D01*
X103550000Y-91821000D02*
X103550000Y-93160000D01*
X103550000Y-95240000D02*
X103550000Y-96579000D01*
X103590000Y-91858000D02*
X103590000Y-93160000D01*
X103590000Y-95240000D02*
X103590000Y-96542000D01*
X103630000Y-91896000D02*
X103630000Y-93160000D01*
X103630000Y-95240000D02*
X103630000Y-96504000D01*
X103670000Y-91936000D02*
X103670000Y-96464000D01*
X103710000Y-91977000D02*
X103710000Y-96423000D01*
X103750000Y-92019000D02*
X103750000Y-96381000D01*
X103790000Y-92063000D02*
X103790000Y-96337000D01*
X103830000Y-92109000D02*
X103830000Y-96291000D01*
X103870000Y-92156000D02*
X103870000Y-96244000D01*
X103910000Y-92205000D02*
X103910000Y-96195000D01*
X103950000Y-92257000D02*
X103950000Y-96143000D01*
X103990000Y-92310000D02*
X103990000Y-96090000D01*
X104030000Y-92366000D02*
X104030000Y-96034000D01*
X104070000Y-92425000D02*
X104070000Y-95975000D01*
X104110000Y-92486000D02*
X104110000Y-95914000D01*
X104150000Y-92551000D02*
X104150000Y-95849000D01*
X104190000Y-92619000D02*
X104190000Y-95781000D01*
X104230000Y-92691000D02*
X104230000Y-95709000D01*
X104270000Y-92768000D02*
X104270000Y-95632000D01*
X104310000Y-92850000D02*
X104310000Y-95550000D01*
X104350000Y-92939000D02*
X104350000Y-95461000D01*
X104390000Y-93035000D02*
X104390000Y-95365000D01*
X104430000Y-93142000D02*
X104430000Y-95258000D01*
X104470000Y-93261000D02*
X104470000Y-95139000D01*
X104510000Y-93399000D02*
X104510000Y-95001000D01*
X104550000Y-93567000D02*
X104550000Y-94833000D01*
X104590000Y-93798000D02*
X104590000Y-94602000D01*
X104620000Y-94200000D02*
G75*
G02*
X98080000Y-94200000I-3270000J0D01*
G01*
X98080000Y-94200000D02*
G75*
G02*
X104620000Y-94200000I3270000J0D01*
G01*
%TO.C,SW3*%
X118575000Y-65815000D02*
X119955000Y-65815000D01*
X118575000Y-67195000D02*
X118575000Y-65815000D01*
X118575000Y-68465000D02*
X118575000Y-71115000D01*
X118575000Y-68465000D02*
X121335000Y-68465000D01*
X118575000Y-71115000D02*
X121335000Y-71115000D01*
X121335000Y-68465000D02*
X121335000Y-71115000D01*
%TO.C,RV1*%
X109420000Y-98820000D02*
X110800000Y-98820000D01*
X109420000Y-100200000D02*
X109420000Y-98820000D01*
X109420000Y-101470000D02*
X109420000Y-106660000D01*
X109420000Y-101470000D02*
X112180000Y-101470000D01*
X109420000Y-106660000D02*
X112180000Y-106660000D01*
X112180000Y-101470000D02*
X112180000Y-106660000D01*
%TD*%
M02*
