M48
; DRILL file KiCad 10.0.3 date 2026-09-18T23:33:35
; FORMAT={-:-/ absolute / metric / decimal}
; #@! TF.CreationDate,2026-09-18T23:33:35-04:00
; #@! TF.GenerationSoftware,Kicad,Pcbnew,10.0.3
; #@! TF.FileFunction,Plated,1,2,PTH
FMAT,2
METRIC
; #@! TA.AperFunction,Plated,PTH,ViaDrill
T1C0.300
; #@! TA.AperFunction,Plated,PTH,ComponentDrill
T2C0.800
; #@! TA.AperFunction,Plated,PTH,ComponentDrill
T3C0.889
; #@! TA.AperFunction,Plated,PTH,ComponentDrill
T4C1.000
; #@! TA.AperFunction,Plated,PTH,ComponentDrill
T5C1.100
; #@! TA.AperFunction,Plated,PTH,ComponentDrill
T6C2.000
%
G90
G05
T1
X102.0Y-83.0
X103.6Y-67.8
X103.8Y-79.0
X106.6Y-88.4
X106.766Y-85.6
X107.6Y-86.6
X111.6Y-83.2
X112.6Y-81.0
X113.2Y-69.135
X115.8Y-84.6
X117.8Y-68.8
X122.2Y-83.12
X126.76Y-84.04
X147.526Y-85.274
X150.4Y-86.6
X152.4Y-101.6
T2
X100.1Y-75.6
X100.1Y-94.2
X100.218Y-66.0
X100.218Y-85.0
X100.218Y-103.2
X102.6Y-75.6
X102.6Y-94.2
X102.718Y-66.0
X102.718Y-85.0
X102.718Y-103.2
X107.19Y-61.2
X109.78Y-79.98
X109.78Y-82.52
X109.78Y-85.06
X109.78Y-87.6
X114.81Y-61.2
X117.4Y-79.98
X117.4Y-82.52
X117.4Y-85.06
X117.4Y-87.6
X119.58Y-61.2
X127.2Y-61.2
T3
X141.18Y-90.18
X141.18Y-105.42
X143.72Y-90.18
X143.72Y-105.42
X146.26Y-90.18
X146.26Y-105.42
X148.8Y-90.18
X148.8Y-105.42
X151.34Y-90.18
X151.34Y-105.42
X153.88Y-90.18
X153.88Y-105.42
X156.42Y-90.18
X156.42Y-105.42
T4
X110.775Y-67.195
X110.775Y-69.735
X110.8Y-100.2
X110.8Y-102.74
X110.8Y-105.28
X115.365Y-67.195
X115.365Y-69.735
X119.0Y-100.06
X119.0Y-102.6
X119.0Y-105.14
X119.955Y-67.195
X119.955Y-69.735
X129.6Y-78.0
X129.6Y-80.0
X129.6Y-82.0
X129.6Y-84.0
T5
X144.1Y-78.5
X144.1Y-81.0
X144.1Y-83.5
T4
G00X135.5Y-65.1
M15
G01X135.5Y-66.1
M16
G05
G00X138.5Y-70.1
M15
G01X139.5Y-70.1
M16
G05
G00X143.3Y-60.6
M15
G01X144.3Y-60.6
M16
G05
T6
G00X136.3Y-75.4
M15
G01X136.9Y-75.4
M16
G05
G00X136.9Y-86.6
M15
G01X136.3Y-86.6
M16
G05
M30
