%TF.GenerationSoftware,KiCad,Pcbnew,10.0.3*%
%TF.CreationDate,2026-09-20T14:08:30-04:00*%
%TF.ProjectId,radio,72616469-6f2e-46b6-9963-61645f706362,rev?*%
%TF.SameCoordinates,Original*%
%TF.FileFunction,Soldermask,Top*%
%TF.FilePolarity,Negative*%
%FSLAX46Y46*%
G04 Gerber Fmt 4.6, Leading zero omitted, Abs format (unit mm)*
G04 Created by KiCad (PCBNEW 10.0.3) date 2026-09-20 14:08:30*
%MOMM*%
%LPD*%
G01*
G04 APERTURE LIST*
G04 Aperture macros list*
%AMRoundRect*
0 Rectangle with rounded corners*
0 $1 Rounding radius*
0 $2 $3 $4 $5 $6 $7 $8 $9 X,Y pos of 4 corners*
0 Add a 4 corners polygon primitive as box body*
4,1,4,$2,$3,$4,$5,$6,$7,$8,$9,$2,$3,0*
0 Add four circle primitives for the rounded corners*
1,1,$1+$1,$2,$3*
1,1,$1+$1,$4,$5*
1,1,$1+$1,$6,$7*
1,1,$1+$1,$8,$9*
0 Add four rect primitives between the rounded corners*
20,1,$1+$1,$2,$3,$4,$5,0*
20,1,$1+$1,$4,$5,$6,$7,0*
20,1,$1+$1,$6,$7,$8,$9,0*
20,1,$1+$1,$8,$9,$2,$3,0*%
G04 Aperture macros list end*
%ADD10C,1.000000*%
%ADD11RoundRect,0.075000X-0.312500X-0.075000X0.312500X-0.075000X0.312500X0.075000X-0.312500X0.075000X0*%
%ADD12RoundRect,0.075000X-0.075000X-0.312500X0.075000X-0.312500X0.075000X0.312500X-0.075000X0.312500X0*%
%ADD13R,4.800000X4.800000*%
%ADD14C,1.400000*%
%ADD15C,1.700000*%
%ADD16R,1.700000X1.700000*%
%ADD17C,1.600000*%
%ADD18RoundRect,0.250000X-0.550000X-0.550000X0.550000X-0.550000X0.550000X0.550000X-0.550000X0.550000X0*%
%ADD19O,1.800000X1.200000*%
%ADD20C,1.200000*%
%ADD21R,2.000000X1.200000*%
%ADD22C,2.700000*%
%ADD23C,1.473200*%
%ADD24RoundRect,0.152400X1.063600X0.609600X-1.063600X0.609600X-1.063600X-0.609600X1.063600X-0.609600X0*%
%ADD25C,1.524000*%
%ADD26RoundRect,0.152400X-1.063600X-0.609600X1.063600X-0.609600X1.063600X0.609600X-1.063600X0.609600X0*%
G04 APERTURE END LIST*
D10*
%TO.C,Y2*%
X110555000Y-35930000D03*
X110555000Y-38470000D03*
%TD*%
D11*
%TO.C,U5*%
X114400000Y-35300000D03*
X114400000Y-35950000D03*
X114400000Y-36600000D03*
X114400000Y-37250000D03*
X114400000Y-37900000D03*
X114400000Y-38550000D03*
X114400000Y-39200000D03*
D12*
X115437500Y-40237500D03*
X116087500Y-40237500D03*
X116737500Y-40237500D03*
X117387500Y-40237500D03*
X118037500Y-40237500D03*
X118687500Y-40237500D03*
X119337500Y-40237500D03*
D11*
X120375000Y-39200000D03*
X120375000Y-38550000D03*
X120375000Y-37900000D03*
X120375000Y-37250000D03*
X120375000Y-36600000D03*
X120375000Y-35950000D03*
X120375000Y-35300000D03*
D12*
X119337500Y-34262500D03*
X118687500Y-34262500D03*
X118037500Y-34262500D03*
X117387500Y-34262500D03*
X116737500Y-34262500D03*
X116087500Y-34262500D03*
X115437500Y-34262500D03*
D13*
X117387500Y-37250000D03*
%TD*%
D14*
%TO.C,C12*%
X135895000Y-90500000D03*
X137795000Y-90500000D03*
%TD*%
%TO.C,C11*%
X135895000Y-87350000D03*
X137795000Y-87350000D03*
%TD*%
%TO.C,C10*%
X135895000Y-84200000D03*
X137795000Y-84200000D03*
%TD*%
%TO.C,C9*%
X135895000Y-81050000D03*
X137795000Y-81050000D03*
%TD*%
%TO.C,C8*%
X135895000Y-77900000D03*
X137795000Y-77900000D03*
%TD*%
%TO.C,C7*%
X135895000Y-74750000D03*
X137795000Y-74750000D03*
%TD*%
%TO.C,C6*%
X128400000Y-74000000D03*
X128400000Y-72100000D03*
%TD*%
%TO.C,10Kohm1*%
X123980000Y-36000000D03*
X131600000Y-36000000D03*
%TD*%
D15*
%TO.C,SW6*%
X121590000Y-70865000D03*
D16*
X121590000Y-68325000D03*
%TD*%
D15*
%TO.C,SW5*%
X117000000Y-70865000D03*
D16*
X117000000Y-68325000D03*
%TD*%
D15*
%TO.C,J4*%
X98640000Y-70865000D03*
D16*
X98640000Y-68325000D03*
%TD*%
D15*
%TO.C,J5*%
X103230000Y-70865000D03*
D16*
X103230000Y-68325000D03*
%TD*%
D17*
%TO.C,U3*%
X130010000Y-45590000D03*
X130010000Y-48130000D03*
X130010000Y-50670000D03*
X130010000Y-53210000D03*
X122390000Y-53210000D03*
X122390000Y-50670000D03*
X122390000Y-48130000D03*
D18*
X122390000Y-45590000D03*
%TD*%
D19*
%TO.C,CN1*%
X108700000Y-80400000D03*
X101700000Y-80400000D03*
X103700000Y-75600000D03*
D20*
X107700000Y-78000000D03*
X101700000Y-78000000D03*
%TD*%
D21*
%TO.C,U2*%
X126100000Y-84600000D03*
X126100000Y-86600000D03*
X126100000Y-88600000D03*
X126100000Y-90600000D03*
X126100000Y-92600000D03*
X115100000Y-92600000D03*
X115100000Y-90600000D03*
X115100000Y-88600000D03*
X115100000Y-86600000D03*
X115100000Y-84600000D03*
%TD*%
D22*
%TO.C,H1*%
X87400000Y-36400000D03*
%TD*%
D23*
%TO.C,U4*%
X112726750Y-77000000D03*
X115266750Y-77000000D03*
X117806750Y-77000000D03*
%TD*%
D24*
%TO.C,U1*%
X97345000Y-46948501D03*
D25*
X98180000Y-46948501D03*
D24*
X97345000Y-49488501D03*
D25*
X98180000Y-49488501D03*
D24*
X97345000Y-52028501D03*
D25*
X98180000Y-52028501D03*
D24*
X97345000Y-54568501D03*
D25*
X98180000Y-54568501D03*
D24*
X97345000Y-57108501D03*
D25*
X98180000Y-57108501D03*
D24*
X97345000Y-59648501D03*
D25*
X98180000Y-59648501D03*
D24*
X97345000Y-62188501D03*
D25*
X98180000Y-62188501D03*
X113420000Y-62188501D03*
D26*
X114255000Y-62188501D03*
D25*
X113420000Y-59648501D03*
D26*
X114255000Y-59648501D03*
D25*
X113420000Y-57108501D03*
D26*
X114255000Y-57108501D03*
D25*
X113420000Y-54568501D03*
D26*
X114255000Y-54568501D03*
D25*
X113420000Y-52028501D03*
D26*
X114255000Y-52028501D03*
D25*
X113420000Y-49488501D03*
D26*
X114255000Y-49488501D03*
D25*
X113420000Y-46948501D03*
D26*
X114255000Y-46948501D03*
%TD*%
D16*
%TO.C,SW4*%
X112410000Y-68325000D03*
D15*
X112410000Y-70865000D03*
%TD*%
D16*
%TO.C,SW3*%
X107820000Y-68325000D03*
D15*
X107820000Y-70865000D03*
%TD*%
D16*
%TO.C,RV2*%
X102800000Y-86260000D03*
D15*
X102800000Y-88800000D03*
X102800000Y-91340000D03*
%TD*%
D16*
%TO.C,RV1*%
X98210000Y-86260000D03*
D15*
X98210000Y-88800000D03*
X98210000Y-91340000D03*
%TD*%
D17*
%TO.C,R2*%
X133800000Y-45990000D03*
X133800000Y-53610000D03*
%TD*%
%TO.C,R1*%
X118400000Y-45400000D03*
X118400000Y-53020000D03*
%TD*%
D16*
%TO.C,J2*%
X137800000Y-45460000D03*
D15*
X137800000Y-48000000D03*
X137800000Y-50540000D03*
X137800000Y-53080000D03*
X137800000Y-55620000D03*
X137800000Y-58160000D03*
%TD*%
D16*
%TO.C,J1*%
X170400000Y-75990000D03*
D15*
X170400000Y-78530000D03*
X170400000Y-81070000D03*
X170400000Y-83610000D03*
%TD*%
D22*
%TO.C,H4*%
X176400000Y-95200000D03*
%TD*%
%TO.C,H3*%
X86600000Y-94600000D03*
%TD*%
%TO.C,H2*%
X175200000Y-35800000D03*
%TD*%
D18*
%TO.C,C5*%
X85310241Y-84825000D03*
D17*
X87810241Y-84825000D03*
%TD*%
D18*
%TO.C,C4*%
X85310241Y-76975000D03*
D17*
X87810241Y-76975000D03*
%TD*%
D18*
%TO.C,C3*%
X85310241Y-69125000D03*
D17*
X87810241Y-69125000D03*
%TD*%
D18*
%TO.C,C2*%
X85310241Y-61275000D03*
D17*
X87810241Y-61275000D03*
%TD*%
D18*
%TO.C,C1*%
X86417621Y-48200000D03*
D17*
X88917621Y-48200000D03*
%TD*%
D14*
%TO.C,100ohm1*%
X129210000Y-78200000D03*
X121590000Y-78200000D03*
%TD*%
M02*
