%TF.GenerationSoftware,KiCad,Pcbnew,10.0.3*%
%TF.CreationDate,2026-09-20T14:08:30-04:00*%
%TF.ProjectId,radio,72616469-6f2e-46b6-9963-61645f706362,rev?*%
%TF.SameCoordinates,Original*%
%TF.FileFunction,Copper,L2,Bot*%
%TF.FilePolarity,Positive*%
%FSLAX46Y46*%
G04 Gerber Fmt 4.6, Leading zero omitted, Abs format (unit mm)*
G04 Created by KiCad (PCBNEW 10.0.3) date 2026-09-20 14:08:30*
%MOMM*%
%LPD*%
G01*
G04 APERTURE LIST*
G04 Aperture macros list*
%AMRoundRect*
0 Rectangle with rounded corners*
0 $1 Rounding radius*
0 $2 $3 $4 $5 $6 $7 $8 $9 X,Y pos of 4 corners*
0 Add a 4 corners polygon primitive as box body*
4,1,4,$2,$3,$4,$5,$6,$7,$8,$9,$2,$3,0*
0 Add four circle primitives for the rounded corners*
1,1,$1+$1,$2,$3*
1,1,$1+$1,$4,$5*
1,1,$1+$1,$6,$7*
1,1,$1+$1,$8,$9*
0 Add four rect primitives between the rounded corners*
20,1,$1+$1,$2,$3,$4,$5,0*
20,1,$1+$1,$4,$5,$6,$7,0*
20,1,$1+$1,$6,$7,$8,$9,0*
20,1,$1+$1,$8,$9,$2,$3,0*%
G04 Aperture macros list end*
%TA.AperFunction,ComponentPad*%
%ADD10C,1.000000*%
%TD*%
%TA.AperFunction,ComponentPad*%
%ADD11C,1.400000*%
%TD*%
%TA.AperFunction,ComponentPad*%
%ADD12C,1.700000*%
%TD*%
%TA.AperFunction,ComponentPad*%
%ADD13R,1.700000X1.700000*%
%TD*%
%TA.AperFunction,ComponentPad*%
%ADD14C,1.600000*%
%TD*%
%TA.AperFunction,ComponentPad*%
%ADD15RoundRect,0.250000X-0.550000X-0.550000X0.550000X-0.550000X0.550000X0.550000X-0.550000X0.550000X0*%
%TD*%
%TA.AperFunction,ComponentPad*%
%ADD16O,1.800000X1.200000*%
%TD*%
%TA.AperFunction,ComponentPad*%
%ADD17C,1.200000*%
%TD*%
%TA.AperFunction,ComponentPad*%
%ADD18C,1.473200*%
%TD*%
%TA.AperFunction,ComponentPad*%
%ADD19C,1.524000*%
%TD*%
%TA.AperFunction,ViaPad*%
%ADD20C,0.600000*%
%TD*%
%TA.AperFunction,Conductor*%
%ADD21C,0.200000*%
%TD*%
G04 APERTURE END LIST*
D10*
%TO.P,Y2,1,1_1*%
%TO.N,/XTB*%
X110555000Y-35930000D03*
%TO.P,Y2,2,2_2*%
%TO.N,/XTA*%
X110555000Y-38470000D03*
%TD*%
D11*
%TO.P,C12,1*%
%TO.N,/XTA*%
X135895000Y-90500000D03*
%TO.P,C12,2*%
%TO.N,GND*%
X137795000Y-90500000D03*
%TD*%
%TO.P,C11,1*%
%TO.N,/XTB*%
X135895000Y-87350000D03*
%TO.P,C11,2*%
%TO.N,GND*%
X137795000Y-87350000D03*
%TD*%
%TO.P,C10,1*%
%TO.N,Net-(U5-RFI_LF)*%
X135895000Y-84200000D03*
%TO.P,C10,2*%
%TO.N,/ANT*%
X137795000Y-84200000D03*
%TD*%
%TO.P,C9,1*%
%TO.N,Net-(U5-VR_PA)*%
X135895000Y-81050000D03*
%TO.P,C9,2*%
%TO.N,GND*%
X137795000Y-81050000D03*
%TD*%
%TO.P,C8,1*%
%TO.N,Net-(U5-VR_ANA)*%
X135895000Y-77900000D03*
%TO.P,C8,2*%
%TO.N,GND*%
X137795000Y-77900000D03*
%TD*%
%TO.P,C7,1*%
%TO.N,Net-(U5-VR_DIG)*%
X135895000Y-74750000D03*
%TO.P,C7,2*%
%TO.N,GND*%
X137795000Y-74750000D03*
%TD*%
%TO.P,C6,1*%
%TO.N,Net-(U4-VS)*%
X128400000Y-74000000D03*
%TO.P,C6,2*%
%TO.N,GND*%
X128400000Y-72100000D03*
%TD*%
%TO.P,10Kohm1,1*%
%TO.N,+3V3*%
X123980000Y-36000000D03*
%TO.P,10Kohm1,2*%
%TO.N,Net-(U5-~{RESET})*%
X131600000Y-36000000D03*
%TD*%
D12*
%TO.P,SW6,2,2_2*%
%TO.N,Net-(U1-P29_A3_D3)*%
X121590000Y-70865000D03*
D13*
%TO.P,SW6,1,1_1*%
%TO.N,GND*%
X121590000Y-68325000D03*
%TD*%
D12*
%TO.P,SW5,2,2_2*%
%TO.N,Net-(U1-P0_D6_TX)*%
X117000000Y-70865000D03*
D13*
%TO.P,SW5,1,1_1*%
%TO.N,GND*%
X117000000Y-68325000D03*
%TD*%
D12*
%TO.P,J4,2,Pin_2_2*%
%TO.N,GND*%
X98640000Y-70865000D03*
D13*
%TO.P,J4,1,Pin_1_1*%
%TO.N,/R AMP OUT*%
X98640000Y-68325000D03*
%TD*%
D12*
%TO.P,J5,2,Pin_2_2*%
%TO.N,GND*%
X103230000Y-70865000D03*
D13*
%TO.P,J5,1,Pin_1_1*%
%TO.N,/L AMP OUT*%
X103230000Y-68325000D03*
%TD*%
D14*
%TO.P,U3,8,NF1_8*%
%TO.N,Net-(U3-NF1)*%
X130010000Y-45590000D03*
%TO.P,U3,7,IN1_7*%
%TO.N,Net-(U3-IN1)*%
X130010000Y-48130000D03*
%TO.P,U3,6,IN2_6*%
%TO.N,Net-(U3-IN2)*%
X130010000Y-50670000D03*
%TO.P,U3,5,NF2_5*%
%TO.N,Net-(U3-NF2)*%
X130010000Y-53210000D03*
%TO.P,U3,4,GND_4*%
%TO.N,GND*%
X122390000Y-53210000D03*
%TO.P,U3,3,OUT2_3*%
%TO.N,Net-(U3-OUT2)*%
X122390000Y-50670000D03*
%TO.P,U3,2,VCC_2*%
%TO.N,+3V3*%
X122390000Y-48130000D03*
D15*
%TO.P,U3,1,OUT1_1*%
%TO.N,Net-(U3-OUT1)*%
X122390000Y-45590000D03*
%TD*%
D16*
%TO.P,CN1,4,4_4*%
%TO.N,Net-(U2-ANT)*%
X108700000Y-80400000D03*
%TO.P,CN1,3,3_3*%
%TO.N,GND*%
X101700000Y-80400000D03*
%TO.P,CN1,2,2_2*%
%TO.N,/ANT*%
X103700000Y-75600000D03*
D17*
%TO.P,CN1,*%
%TO.N,*%
X107700000Y-78000000D03*
X101700000Y-78000000D03*
%TD*%
D18*
%TO.P,U4,1,OUT_1*%
%TO.N,/OUT*%
X112726750Y-77000000D03*
%TO.P,U4,2,GND_2*%
%TO.N,GND*%
X115266750Y-77000000D03*
%TO.P,U4,3,VS_3*%
%TO.N,Net-(U4-VS)*%
X117806750Y-77000000D03*
%TD*%
D19*
%TO.P,U1,1,P26_A0_D0_1*%
%TO.N,/CS*%
X98180000Y-46948501D03*
%TO.P,U1,2,P27_A1_D1_2*%
%TO.N,/OUT*%
X98180000Y-49488501D03*
%TO.P,U1,3,P28_A2_D2_3*%
%TO.N,Net-(U1-P28_A2_D2)*%
X98180000Y-52028501D03*
%TO.P,U1,4,P29_A3_D3_4*%
%TO.N,Net-(U1-P29_A3_D3)*%
X98180000Y-54568501D03*
%TO.P,U1,5,P6_SDA_D4_5*%
%TO.N,/SDA*%
X98180000Y-57108501D03*
%TO.P,U1,6,P7_SCL_D5_6*%
%TO.N,/SCL*%
X98180000Y-59648501D03*
%TO.P,U1,7,P0_D6_TX_7*%
%TO.N,Net-(U1-P0_D6_TX)*%
X98180000Y-62188501D03*
%TO.P,U1,8,P1_D7_RX_8*%
%TO.N,Net-(U1-P1_D7_RX)*%
X113420000Y-62188501D03*
%TO.P,U1,9,P2_D8_SCK_9*%
%TO.N,/SCK*%
X113420000Y-59648501D03*
%TO.P,U1,10,P4_D9_MISO_10*%
%TO.N,/MISO*%
X113420000Y-57108501D03*
%TO.P,U1,11,P3_D10_MOSI_11*%
%TO.N,/MOSI*%
X113420000Y-54568501D03*
%TO.P,U1,12,3V3_12*%
%TO.N,+3V3*%
X113420000Y-52028501D03*
%TO.P,U1,13,GND_13*%
%TO.N,GND*%
X113420000Y-49488501D03*
%TO.P,U1,14,VBUS_14*%
%TO.N,unconnected-(U1-VBUS-Pad14)*%
X113420000Y-46948501D03*
%TD*%
D13*
%TO.P,SW4,1,1_1*%
%TO.N,GND*%
X112410000Y-68325000D03*
D12*
%TO.P,SW4,2,2_2*%
%TO.N,Net-(U1-P28_A2_D2)*%
X112410000Y-70865000D03*
%TD*%
D13*
%TO.P,SW3,1,1_1*%
%TO.N,Net-(U1-P1_D7_RX)*%
X107820000Y-68325000D03*
D12*
%TO.P,SW3,2,2_2*%
%TO.N,GND*%
X107820000Y-70865000D03*
%TD*%
D13*
%TO.P,RV2,1,1_1*%
%TO.N,/LOUT*%
X102800000Y-86260000D03*
D12*
%TO.P,RV2,2,2_2*%
%TO.N,Net-(U3-IN2)*%
X102800000Y-88800000D03*
%TO.P,RV2,3,3_3*%
%TO.N,GND*%
X102800000Y-91340000D03*
%TD*%
D13*
%TO.P,RV1,1,1_1*%
%TO.N,/ROUT*%
X98210000Y-86260000D03*
D12*
%TO.P,RV1,2,2_2*%
%TO.N,Net-(U3-IN1)*%
X98210000Y-88800000D03*
%TO.P,RV1,3,3_3*%
%TO.N,GND*%
X98210000Y-91340000D03*
%TD*%
D14*
%TO.P,R2,1*%
%TO.N,Net-(U3-IN2)*%
X133800000Y-45990000D03*
%TO.P,R2,2*%
%TO.N,GND*%
X133800000Y-53610000D03*
%TD*%
%TO.P,R1,1*%
%TO.N,Net-(U3-IN1)*%
X118400000Y-45400000D03*
%TO.P,R1,2*%
%TO.N,GND*%
X118400000Y-53020000D03*
%TD*%
D13*
%TO.P,J2,1,Pin_1_1*%
%TO.N,/CS*%
X137800000Y-45460000D03*
D12*
%TO.P,J2,2,Pin_2_2*%
%TO.N,/SCK*%
X137800000Y-48000000D03*
%TO.P,J2,3,Pin_3_3*%
%TO.N,/MOSI*%
X137800000Y-50540000D03*
%TO.P,J2,4,Pin_4_4*%
%TO.N,/MISO*%
X137800000Y-53080000D03*
%TO.P,J2,5,Pin_5_5*%
%TO.N,+3V3*%
X137800000Y-55620000D03*
%TO.P,J2,6,Pin_6_6*%
%TO.N,GND*%
X137800000Y-58160000D03*
%TD*%
D13*
%TO.P,J1,1,Pin_1_1*%
%TO.N,GND*%
X170400000Y-75990000D03*
D12*
%TO.P,J1,2,Pin_2_2*%
%TO.N,+3V3*%
X170400000Y-78530000D03*
%TO.P,J1,3,Pin_3_3*%
%TO.N,/SCL*%
X170400000Y-81070000D03*
%TO.P,J1,4,Pin_4_4*%
%TO.N,/SDA*%
X170400000Y-83610000D03*
%TD*%
D15*
%TO.P,C5,1*%
%TO.N,Net-(U3-OUT2)*%
X85310241Y-84825000D03*
D14*
%TO.P,C5,2*%
%TO.N,/L AMP OUT*%
X87810241Y-84825000D03*
%TD*%
D15*
%TO.P,C4,1*%
%TO.N,Net-(U3-OUT1)*%
X85310241Y-76975000D03*
D14*
%TO.P,C4,2*%
%TO.N,/R AMP OUT*%
X87810241Y-76975000D03*
%TD*%
D15*
%TO.P,C3,1*%
%TO.N,+3V3*%
X85310241Y-69125000D03*
D14*
%TO.P,C3,2*%
%TO.N,GND*%
X87810241Y-69125000D03*
%TD*%
D15*
%TO.P,C2,1*%
%TO.N,Net-(U3-NF2)*%
X85310241Y-61275000D03*
D14*
%TO.P,C2,2*%
%TO.N,GND*%
X87810241Y-61275000D03*
%TD*%
D15*
%TO.P,C1,1*%
%TO.N,Net-(U3-NF1)*%
X86417621Y-48200000D03*
D14*
%TO.P,C1,2*%
%TO.N,GND*%
X88917621Y-48200000D03*
%TD*%
D11*
%TO.P,100ohm1,1*%
%TO.N,+3V3*%
X129210000Y-78200000D03*
%TO.P,100ohm1,2*%
%TO.N,Net-(U4-VS)*%
X121590000Y-78200000D03*
%TD*%
D20*
%TO.N,+3V3*%
X119420089Y-53825870D03*
X121280026Y-53968501D03*
X118000000Y-57708501D03*
X130000000Y-58600000D03*
X124000000Y-57800000D03*
X119165735Y-47965735D03*
X118200000Y-43200000D03*
%TO.N,GND*%
X120600000Y-42600000D03*
X116800000Y-47600000D03*
%TO.N,Net-(U5-VR_PA)*%
X117200000Y-32800000D03*
X117387500Y-34262500D03*
X139800000Y-61008527D03*
X139400000Y-79000000D03*
X122800000Y-33400000D03*
%TO.N,+3V3*%
X114600000Y-41000000D03*
X113600000Y-36600000D03*
X114400000Y-33200000D03*
%TO.N,Net-(U5-VR_DIG)*%
X114400000Y-37250000D03*
%TO.N,GND*%
X126000000Y-70600000D03*
X122600000Y-68000000D03*
X133424265Y-71575735D03*
X137000000Y-72200000D03*
%TO.N,Net-(U5-VR_ANA)*%
X120000000Y-56400000D03*
X134424265Y-74375735D03*
X111936765Y-36463235D03*
X119175735Y-58375735D03*
X117000000Y-56400000D03*
X117000000Y-53800000D03*
X104200000Y-51000000D03*
X123600000Y-62800000D03*
%TO.N,/SCK*%
X123600000Y-42800000D03*
X132047818Y-45447818D03*
%TO.N,/MISO*%
X129000000Y-55324265D03*
X125266637Y-45733363D03*
X124600000Y-43200000D03*
X124000000Y-46400000D03*
X128600000Y-57000000D03*
%TO.N,Net-(U5-~{RESET})*%
X114000000Y-42000000D03*
X125800000Y-39600000D03*
%TO.N,/MOSI*%
X126000000Y-43200000D03*
X127400000Y-47800000D03*
X123800000Y-53000000D03*
%TO.N,/ANT*%
X109400000Y-78636600D03*
X106800000Y-76000000D03*
%TO.N,/XTB*%
X108000000Y-54400000D03*
X119000000Y-65600000D03*
X109400000Y-43200000D03*
X108000000Y-52906501D03*
X121000000Y-64800000D03*
%TO.N,/XTA*%
X126400000Y-62200000D03*
X131000000Y-86100000D03*
X123632842Y-66767158D03*
X111810014Y-52638515D03*
X123400000Y-56400000D03*
%TO.N,GND*%
X139600000Y-84800000D03*
%TO.N,Net-(U5-RFI_LF)*%
X103975735Y-58775735D03*
X105430014Y-60969986D03*
X122075735Y-64475735D03*
X102000000Y-43200000D03*
X103200000Y-52906501D03*
%TO.N,/XTA*%
X111788235Y-38011765D03*
X112836765Y-37363235D03*
%TO.N,/ANT*%
X101800000Y-74000000D03*
X94400000Y-63600000D03*
X95000000Y-43200000D03*
X93000000Y-68525000D03*
X91600000Y-70200000D03*
%TO.N,Net-(U1-P28_A2_D2)*%
X99400000Y-54200000D03*
X114800000Y-64800000D03*
X114400000Y-68925000D03*
X109400000Y-55800000D03*
%TO.N,Net-(U3-IN1)*%
X95200000Y-83000000D03*
X107400000Y-45286501D03*
X103000000Y-83125000D03*
X109000000Y-63600000D03*
X106200000Y-78600000D03*
X104745126Y-70265000D03*
X106200000Y-52906501D03*
X105000000Y-57200000D03*
%TO.N,/LOUT*%
X106024265Y-86424265D03*
X120600000Y-87600000D03*
X112074265Y-83125735D03*
X118400000Y-83800000D03*
X111000000Y-83800000D03*
%TO.N,/ROUT*%
X121600000Y-89000000D03*
%TO.N,/L AMP OUT*%
X90000000Y-85800000D03*
%TO.N,/R AMP OUT*%
X96400000Y-67200000D03*
%TO.N,+3V3*%
X88800000Y-71800000D03*
X103400000Y-63400000D03*
X96600000Y-65800000D03*
X102400000Y-61200000D03*
%TO.N,/OUT*%
X100200000Y-57800000D03*
X109600000Y-70000000D03*
%TO.N,Net-(U4-VS)*%
X120800000Y-75400000D03*
X122494265Y-75894265D03*
%TO.N,+3V3*%
X136000000Y-56800000D03*
%TO.N,/SDA*%
X117200000Y-84200000D03*
X117800000Y-87200000D03*
%TO.N,Net-(U3-OUT2)*%
X121000000Y-52600000D03*
%TO.N,Net-(U3-IN1)*%
X126924265Y-50324265D03*
%TO.N,/MOSI*%
X124475735Y-55924265D03*
%TO.N,+3V3*%
X116014265Y-52814265D03*
X120200000Y-52610000D03*
%TO.N,Net-(U3-OUT1)*%
X85600000Y-73400000D03*
%TO.N,/SDA*%
X115100000Y-84600000D03*
X95800000Y-68525000D03*
%TO.N,Net-(U1-P29_A3_D3)*%
X119400000Y-68925000D03*
%TO.N,Net-(U1-P1_D7_RX)*%
X113600000Y-64800000D03*
%TO.N,Net-(U3-NF2)*%
X128000000Y-43800000D03*
%TO.N,Net-(U1-P0_D6_TX)*%
X115200000Y-67725000D03*
%TO.N,/SCL*%
X110600000Y-81000000D03*
%TO.N,+3V3*%
X167800000Y-75390000D03*
%TO.N,/MISO*%
X125200000Y-57000000D03*
%TO.N,/SCK*%
X124400000Y-54000000D03*
%TO.N,Net-(U3-IN2)*%
X131800000Y-54200000D03*
X133000000Y-56000000D03*
%TD*%
%TO.N,+3V3*%
D21*
X129200000Y-57800000D02*
X124000000Y-57800000D01*
X119420089Y-53825870D02*
X120200000Y-53045959D01*
X120200000Y-53045959D02*
X120200000Y-52610000D01*
X118000000Y-57708501D02*
X118000000Y-57248527D01*
X130000000Y-58600000D02*
X129200000Y-57800000D01*
X118000000Y-57248527D02*
X121280026Y-53968501D01*
X117300000Y-44100000D02*
X117300000Y-46100000D01*
X117300000Y-46100000D02*
X119165735Y-47965735D01*
X118200000Y-43200000D02*
X117300000Y-44100000D01*
%TO.N,GND*%
X117400000Y-42600000D02*
X120600000Y-42600000D01*
X116800000Y-47600000D02*
X116800000Y-43200000D01*
X116800000Y-43200000D02*
X117400000Y-42600000D01*
%TO.N,Net-(U5-VR_PA)*%
X117200000Y-32800000D02*
X117200000Y-34075000D01*
X117200000Y-34075000D02*
X117387500Y-34262500D01*
%TO.N,+3V3*%
X114800000Y-33600000D02*
X114800000Y-36193927D01*
X114400000Y-33200000D02*
X114800000Y-33600000D01*
X114800000Y-36193927D02*
X114393927Y-36600000D01*
X114393927Y-36600000D02*
X113600000Y-36600000D01*
%TO.N,Net-(U5-VR_PA)*%
X139800000Y-61008527D02*
X139800000Y-41234315D01*
X137945000Y-79000000D02*
X139400000Y-79000000D01*
X135895000Y-81050000D02*
X137945000Y-79000000D01*
X131965685Y-33400000D02*
X122800000Y-33400000D01*
X139800000Y-41234315D02*
X131965685Y-33400000D01*
%TO.N,+3V3*%
X113436765Y-39836765D02*
X113436765Y-36763235D01*
X114600000Y-41000000D02*
X113436765Y-39836765D01*
X113436765Y-36763235D02*
X113600000Y-36600000D01*
%TO.N,Net-(U5-VR_DIG)*%
X139200000Y-71445000D02*
X139200000Y-41200000D01*
X135895000Y-74750000D02*
X139200000Y-71445000D01*
X139200000Y-41200000D02*
X135250000Y-37250000D01*
X135250000Y-37250000D02*
X114400000Y-37250000D01*
%TO.N,GND*%
X121590000Y-68325000D02*
X122275000Y-68325000D01*
X126400000Y-71000000D02*
X127300000Y-71000000D01*
X122275000Y-68325000D02*
X122600000Y-68000000D01*
X126000000Y-70600000D02*
X126400000Y-71000000D01*
X127300000Y-71000000D02*
X128400000Y-72100000D01*
X134048530Y-72200000D02*
X133424265Y-71575735D01*
X137000000Y-72200000D02*
X134048530Y-72200000D01*
%TO.N,Net-(U5-VR_ANA)*%
X134424265Y-73424265D02*
X134424265Y-74375735D01*
X123800000Y-62800000D02*
X134424265Y-73424265D01*
X123600000Y-62800000D02*
X123800000Y-62800000D01*
X117000000Y-53800000D02*
X117000000Y-56400000D01*
X104200000Y-43600000D02*
X104200000Y-51000000D01*
X120000000Y-56400000D02*
X120000000Y-57551470D01*
X120000000Y-57551470D02*
X119175735Y-58375735D01*
X111336765Y-36463235D02*
X104200000Y-43600000D01*
X111936765Y-36463235D02*
X111336765Y-36463235D01*
%TO.N,/SCK*%
X129200000Y-42600000D02*
X132047818Y-45447818D01*
X123800000Y-42600000D02*
X129200000Y-42600000D01*
X123600000Y-42800000D02*
X123800000Y-42600000D01*
%TO.N,/MISO*%
X124000000Y-50324265D02*
X129000000Y-55324265D01*
X124000000Y-46400000D02*
X124000000Y-50324265D01*
X124600000Y-43200000D02*
X124600000Y-45066726D01*
X124600000Y-45066726D02*
X125266637Y-45733363D01*
X125200000Y-57000000D02*
X128600000Y-57000000D01*
%TO.N,Net-(U5-~{RESET})*%
X124400000Y-42000000D02*
X114000000Y-42000000D01*
X125800000Y-39600000D02*
X124400000Y-41000000D01*
X124400000Y-41000000D02*
X124400000Y-42000000D01*
%TO.N,/MOSI*%
X126000000Y-43200000D02*
X126000000Y-46400000D01*
X124475735Y-55924265D02*
X127600000Y-55924265D01*
X126000000Y-46400000D02*
X127400000Y-47800000D01*
X123800000Y-53000000D02*
X124675735Y-53000000D01*
X124675735Y-53000000D02*
X127600000Y-55924265D01*
%TO.N,/ANT*%
X109400000Y-78636600D02*
X109400000Y-78356497D01*
X107043503Y-76000000D02*
X106800000Y-76000000D01*
X109400000Y-78356497D02*
X107043503Y-76000000D01*
%TO.N,/XTB*%
X111958000Y-57330081D02*
X111958000Y-60254082D01*
X140200000Y-78890786D02*
X140200000Y-83351471D01*
X109027919Y-54400000D02*
X111958000Y-57330081D01*
X108000000Y-54400000D02*
X109027919Y-54400000D01*
X109400000Y-51506501D02*
X108000000Y-52906501D01*
X109400000Y-43200000D02*
X109400000Y-51506501D01*
X114510501Y-61110501D02*
X119000000Y-65600000D01*
X112814420Y-61110501D02*
X114510501Y-61110501D01*
X111958000Y-60254082D02*
X112814420Y-61110501D01*
X121000000Y-64800000D02*
X121000000Y-64702941D01*
X121000000Y-64702941D02*
X121827206Y-63875735D01*
X121827206Y-63875735D02*
X123075735Y-63875735D01*
X123075735Y-63875735D02*
X136100000Y-76900000D01*
X136100000Y-76900000D02*
X138209214Y-76900000D01*
X138209214Y-76900000D02*
X140200000Y-78890786D01*
X140200000Y-83351471D02*
X136201471Y-87350000D01*
X136201471Y-87350000D02*
X135895000Y-87350000D01*
%TO.N,/XTA*%
X126400000Y-62200000D02*
X123400000Y-59200000D01*
X123400000Y-67000000D02*
X123632842Y-66767158D01*
X123400000Y-78500000D02*
X123400000Y-67000000D01*
X111810014Y-52638515D02*
X110555000Y-51383501D01*
X131000000Y-86100000D02*
X123400000Y-78500000D01*
X123400000Y-59200000D02*
X123400000Y-56400000D01*
X110555000Y-51383501D02*
X110555000Y-38470000D01*
%TO.N,GND*%
X139600000Y-84800000D02*
X139600000Y-85545000D01*
X139600000Y-85545000D02*
X137795000Y-87350000D01*
%TO.N,Net-(U5-RFI_LF)*%
X122075735Y-64475735D02*
X122189949Y-64475735D01*
X122189949Y-64475735D02*
X134895000Y-77180786D01*
X103975735Y-59515707D02*
X105430014Y-60969986D01*
X102000000Y-43200000D02*
X102000000Y-51706501D01*
X102000000Y-51706501D02*
X103200000Y-52906501D01*
X103975735Y-58775735D02*
X103975735Y-59515707D01*
X134895000Y-77180786D02*
X134895000Y-83200000D01*
X134895000Y-83200000D02*
X135895000Y-84200000D01*
%TO.N,/XTA*%
X112188235Y-38011765D02*
X112836765Y-37363235D01*
X111788235Y-38011765D02*
X112188235Y-38011765D01*
%TO.N,/ANT*%
X95000000Y-43200000D02*
X95000000Y-63000000D01*
X101800000Y-74000000D02*
X103400000Y-75600000D01*
X95000000Y-63000000D02*
X94400000Y-63600000D01*
X93000000Y-68525000D02*
X93000000Y-68800000D01*
X93000000Y-68800000D02*
X91600000Y-70200000D01*
X103400000Y-75600000D02*
X103700000Y-75600000D01*
%TO.N,Net-(U1-P28_A2_D2)*%
X101000000Y-55800000D02*
X99400000Y-54200000D01*
X113725000Y-68250000D02*
X113725000Y-65875000D01*
X109400000Y-55800000D02*
X101000000Y-55800000D01*
X113725000Y-65875000D02*
X114800000Y-64800000D01*
X114400000Y-68925000D02*
X113725000Y-68250000D01*
%TO.N,Net-(U3-IN1)*%
X95400000Y-83200000D02*
X95200000Y-83000000D01*
X107400000Y-45286501D02*
X106000000Y-46686501D01*
X105000000Y-59600000D02*
X109000000Y-63600000D01*
X103000000Y-83125000D02*
X102925000Y-83200000D01*
X105000000Y-57200000D02*
X105000000Y-59600000D01*
X104745126Y-70265000D02*
X106200000Y-71719874D01*
X106200000Y-71719874D02*
X106200000Y-78600000D01*
X106000000Y-46686501D02*
X106000000Y-52706501D01*
X102925000Y-83200000D02*
X95400000Y-83200000D01*
X106000000Y-52706501D02*
X106200000Y-52906501D01*
%TO.N,/LOUT*%
X120600000Y-87600000D02*
X118400000Y-85400000D01*
X106024265Y-86424265D02*
X105860000Y-86260000D01*
X118400000Y-85400000D02*
X118400000Y-83800000D01*
X112074265Y-83125735D02*
X111674265Y-83125735D01*
X111674265Y-83125735D02*
X111000000Y-83800000D01*
X105860000Y-86260000D02*
X102800000Y-86260000D01*
%TO.N,/ROUT*%
X103276346Y-87650000D02*
X99600000Y-87650000D01*
X104626346Y-89000000D02*
X103276346Y-87650000D01*
X121600000Y-89000000D02*
X104626346Y-89000000D01*
X99600000Y-87650000D02*
X98210000Y-86260000D01*
%TO.N,/L AMP OUT*%
X84210241Y-85609744D02*
X84210241Y-84040256D01*
X90000000Y-85800000D02*
X89875000Y-85925000D01*
X89875000Y-85925000D02*
X84525497Y-85925000D01*
X84525497Y-85925000D02*
X84210241Y-85609744D01*
X84210241Y-84040256D02*
X86710241Y-81540256D01*
X86710241Y-81540256D02*
X86710241Y-76041230D01*
X86710241Y-76041230D02*
X96151471Y-66600000D01*
X96151471Y-66600000D02*
X101505000Y-66600000D01*
X101505000Y-66600000D02*
X103230000Y-68325000D01*
%TO.N,/R AMP OUT*%
X96400000Y-67200000D02*
X96276471Y-67200000D01*
X96276471Y-67200000D02*
X87810241Y-75666230D01*
X87810241Y-75666230D02*
X87810241Y-76975000D01*
%TO.N,+3V3*%
X94800000Y-65800000D02*
X88800000Y-71800000D01*
X102400000Y-62400000D02*
X103400000Y-63400000D01*
X102400000Y-61200000D02*
X102400000Y-62400000D01*
X96600000Y-65800000D02*
X94800000Y-65800000D01*
%TO.N,/OUT*%
X106670000Y-69475000D02*
X106400000Y-69205000D01*
X106400000Y-69205000D02*
X106400000Y-64000000D01*
X106400000Y-64000000D02*
X100200000Y-57800000D01*
X109075000Y-69475000D02*
X106670000Y-69475000D01*
X109600000Y-70000000D02*
X109075000Y-69475000D01*
%TO.N,Net-(U4-VS)*%
X121294265Y-75894265D02*
X120800000Y-75400000D01*
X122494265Y-75894265D02*
X121294265Y-75894265D01*
%TO.N,+3V3*%
X136000000Y-56800000D02*
X136620000Y-56800000D01*
X136620000Y-56800000D02*
X137800000Y-55620000D01*
%TO.N,/SDA*%
X117200000Y-86600000D02*
X117200000Y-84200000D01*
X117800000Y-87200000D02*
X117200000Y-86600000D01*
%TO.N,Net-(U3-OUT2)*%
X110400000Y-85200000D02*
X108925000Y-83725000D01*
X121000000Y-53400000D02*
X115813499Y-58586501D01*
X120000000Y-65021002D02*
X120000000Y-80548529D01*
X121000000Y-52600000D02*
X121000000Y-53400000D01*
X115813499Y-58586501D02*
X112980105Y-58586501D01*
X112980105Y-58586501D02*
X112358000Y-59208606D01*
X112358000Y-59208606D02*
X112358000Y-60088396D01*
X112358000Y-60088396D02*
X112980105Y-60710501D01*
X112980105Y-60710501D02*
X115689499Y-60710501D01*
X115689499Y-60710501D02*
X120000000Y-65021002D01*
X120000000Y-80548529D02*
X115348529Y-85200000D01*
X115348529Y-85200000D02*
X110400000Y-85200000D01*
X86410241Y-83725000D02*
X85310241Y-84825000D01*
X108925000Y-83725000D02*
X86410241Y-83725000D01*
%TO.N,Net-(U3-IN1)*%
X126924265Y-50324265D02*
X126924265Y-48239521D01*
X126924265Y-48239521D02*
X123174744Y-44490000D01*
X123174744Y-44490000D02*
X119310000Y-44490000D01*
X119310000Y-44490000D02*
X118400000Y-45400000D01*
%TO.N,/MOSI*%
X127600000Y-55924265D02*
X132075736Y-55924265D01*
X132075736Y-55924265D02*
X132751471Y-56600000D01*
X132751471Y-56600000D02*
X133248529Y-56600000D01*
X133248529Y-56600000D02*
X136650000Y-53198529D01*
X136650000Y-53198529D02*
X136650000Y-51690000D01*
X136650000Y-51690000D02*
X137800000Y-50540000D01*
%TO.N,+3V3*%
X116908530Y-51920000D02*
X116014265Y-52814265D01*
X119510000Y-51920000D02*
X116908530Y-51920000D01*
X120200000Y-52610000D02*
X119510000Y-51920000D01*
%TO.N,Net-(U3-OUT1)*%
X85600000Y-73400000D02*
X97118000Y-61882000D01*
X97118000Y-61882000D02*
X97118000Y-54128606D01*
X97118000Y-54128606D02*
X97740105Y-53506501D01*
X97740105Y-53506501D02*
X114473499Y-53506501D01*
X114473499Y-53506501D02*
X122390000Y-45590000D01*
%TO.N,/SDA*%
X110748654Y-84600000D02*
X115100000Y-84600000D01*
X95800000Y-69651346D02*
X110748654Y-84600000D01*
X95800000Y-68525000D02*
X95800000Y-69651346D01*
%TO.N,Net-(U1-P29_A3_D3)*%
X119400000Y-68925000D02*
X119400000Y-68425000D01*
X119400000Y-68425000D02*
X115175000Y-64200000D01*
X115175000Y-64200000D02*
X107811499Y-64200000D01*
X107811499Y-64200000D02*
X98180000Y-54568501D01*
%TO.N,Net-(U1-P1_D7_RX)*%
X113600000Y-64800000D02*
X110075000Y-68325000D01*
X110075000Y-68325000D02*
X107820000Y-68325000D01*
%TO.N,Net-(U3-NF2)*%
X128000000Y-43800000D02*
X128000000Y-51200000D01*
X128000000Y-51200000D02*
X130010000Y-53210000D01*
%TO.N,Net-(U1-P0_D6_TX)*%
X115200000Y-67725000D02*
X115200000Y-69065000D01*
X115200000Y-69065000D02*
X117000000Y-70865000D01*
%TO.N,/SCL*%
X104380000Y-69051346D02*
X104380000Y-65848501D01*
X110600000Y-81000000D02*
X110600000Y-75271346D01*
X110600000Y-75271346D02*
X104380000Y-69051346D01*
X104380000Y-65848501D02*
X98180000Y-59648501D01*
%TO.N,+3V3*%
X167800000Y-75390000D02*
X167800000Y-75930000D01*
X167800000Y-75930000D02*
X170400000Y-78530000D01*
%TO.N,/MISO*%
X128600000Y-57000000D02*
X133880000Y-57000000D01*
X133880000Y-57000000D02*
X137800000Y-53080000D01*
%TO.N,/SCK*%
X124400000Y-54000000D02*
X118751499Y-59648501D01*
X118751499Y-59648501D02*
X113420000Y-59648501D01*
%TO.N,Net-(U3-IN2)*%
X131800000Y-54800000D02*
X131800000Y-54200000D01*
X133000000Y-56000000D02*
X131800000Y-54800000D01*
%TD*%
M02*
