M48
; DRILL file KiCad 10.0.3 date 2026-09-21T16:05:34
; FORMAT={-:-/ absolute / metric / decimal}
; #@! TF.CreationDate,2026-09-21T16:05:34-04:00
; #@! TF.GenerationSoftware,Kicad,Pcbnew,10.0.3
; #@! TF.FileFunction,Plated,1,2,PTH
FMAT,2
METRIC
; #@! TA.AperFunction,Plated,PTH,ViaDrill
T1C0.300
; #@! TA.AperFunction,Plated,PTH,ComponentDrill
T2C0.500
; #@! TA.AperFunction,Plated,PTH,ComponentDrill
T3C0.600
; #@! TA.AperFunction,Plated,PTH,ComponentDrill
T4C0.700
; #@! TA.AperFunction,Plated,PTH,ComponentDrill
T5C0.800
; #@! TA.AperFunction,Plated,PTH,ComponentDrill
T6C0.889
; #@! TA.AperFunction,Plated,PTH,ComponentDrill
T7C0.965
; #@! TA.AperFunction,Plated,PTH,ComponentDrill
T8C1.000
; #@! TA.AperFunction,Plated,PTH,ComponentDrill
T9C1.200
%
G90
G05
T1
X85.6Y-73.4
X88.8Y-71.8
X90.0Y-85.8
X91.6Y-70.2
X93.0Y-68.525
X94.4Y-63.6
X95.0Y-43.2
X95.8Y-68.525
X96.4Y-67.2
X96.6Y-65.8
X99.4Y-54.2
X100.2Y-57.8
X101.8Y-74.0
X102.0Y-43.2
X102.4Y-61.2
X102.8Y-88.8
X103.2Y-52.907
X103.4Y-63.4
X103.4Y-75.6
X103.976Y-58.776
X104.2Y-51.0
X104.745Y-70.265
X105.0Y-57.2
X105.43Y-60.97
X105.8Y-84.325
X106.024Y-86.424
X106.2Y-52.907
X106.2Y-78.6
X106.8Y-76.0
X107.2Y-91.46
X107.4Y-45.287
X108.0Y-52.907
X108.0Y-54.4
X109.0Y-63.6
X109.4Y-43.2
X109.4Y-55.8
X109.4Y-78.637
X109.6Y-70.0
X109.6Y-88.31
X110.6Y-81.0
X111.0Y-83.8
X111.788Y-38.012
X111.81Y-52.639
X111.937Y-36.463
X112.074Y-83.126
X112.837Y-37.363
X113.6Y-36.6
X113.6Y-64.8
X114.0Y-42.0
X114.4Y-33.2
X114.4Y-37.25
X114.4Y-68.925
X114.6Y-41.0
X114.8Y-64.8
X115.1Y-84.6
X115.2Y-67.725
X116.014Y-52.814
X116.8Y-47.6
X117.0Y-53.8
X117.0Y-56.4
X117.2Y-32.8
X117.2Y-84.2
X117.2Y-91.6
X117.387Y-34.262
X117.8Y-87.2
X118.0Y-57.709
X118.2Y-43.2
X118.4Y-83.8
X119.0Y-65.6
X119.166Y-47.966
X119.176Y-58.376
X119.4Y-68.925
X119.42Y-53.826
X120.0Y-56.4
X120.2Y-52.61
X120.6Y-42.6
X120.6Y-87.6
X120.8Y-75.4
X121.0Y-52.6
X121.0Y-64.8
X121.28Y-53.969
X122.076Y-64.476
X122.494Y-75.894
X122.6Y-68.0
X122.8Y-33.4
X123.4Y-56.4
X123.6Y-42.8
X123.6Y-62.8
X123.633Y-66.767
X123.8Y-53.0
X123.8Y-90.6
X124.0Y-46.4
X124.0Y-57.8
X124.4Y-54.0
X124.476Y-55.924
X124.6Y-43.2
X125.2Y-57.0
X125.267Y-45.733
X125.8Y-39.6
X126.0Y-43.2
X126.0Y-70.6
X126.0Y-95.6
X126.1Y-84.6
X126.1Y-88.6
X126.1Y-92.6
X126.1Y-92.6
X126.4Y-62.2
X126.924Y-50.324
X127.4Y-47.8
X128.0Y-43.8
X128.6Y-57.0
X129.0Y-55.324
X130.0Y-58.6
X131.0Y-86.1
X131.8Y-54.2
X132.048Y-45.448
X133.0Y-56.0
X133.424Y-71.576
X134.424Y-74.376
X136.0Y-56.8
X137.0Y-72.2
X137.6Y-94.1
X139.4Y-79.0
X139.6Y-84.8
X139.8Y-61.009
X167.8Y-75.39
T2
X110.555Y-35.93
X110.555Y-38.47
T4
X121.59Y-78.2
X123.98Y-36.0
X128.4Y-72.1
X128.4Y-74.0
X129.21Y-78.2
X131.6Y-36.0
X135.895Y-74.75
X135.895Y-77.9
X135.895Y-81.05
X135.895Y-84.2
X135.895Y-87.35
X135.895Y-90.5
X137.795Y-74.75
X137.795Y-77.9
X137.795Y-81.05
X137.795Y-84.2
X137.795Y-87.35
X137.795Y-90.5
T5
X85.31Y-61.275
X85.31Y-69.125
X85.31Y-76.975
X85.31Y-84.825
X86.418Y-48.2
X87.81Y-61.275
X87.81Y-69.125
X87.81Y-76.975
X87.81Y-84.825
X88.918Y-48.2
X118.4Y-45.4
X118.4Y-53.02
X122.39Y-45.59
X122.39Y-48.13
X122.39Y-50.67
X122.39Y-53.21
X130.01Y-45.59
X130.01Y-48.13
X130.01Y-50.67
X130.01Y-53.21
X133.8Y-45.99
X133.8Y-53.61
T6
X98.18Y-46.949
X98.18Y-49.489
X98.18Y-52.029
X98.18Y-54.569
X98.18Y-57.109
X98.18Y-59.649
X98.18Y-62.189
X113.42Y-46.949
X113.42Y-49.489
X113.42Y-52.029
X113.42Y-54.569
X113.42Y-57.109
X113.42Y-59.649
X113.42Y-62.189
T7
X112.727Y-77.0
X115.267Y-77.0
X117.807Y-77.0
T8
X98.64Y-68.325
X98.64Y-70.865
X103.23Y-68.325
X103.23Y-70.865
X107.82Y-68.325
X107.82Y-70.865
X112.41Y-68.325
X112.41Y-70.865
X117.0Y-68.325
X117.0Y-70.865
X117.6Y-96.8
X120.14Y-96.8
X121.59Y-68.325
X121.59Y-70.865
X122.68Y-96.8
X129.12Y-96.8
X131.66Y-96.8
X134.2Y-96.8
X137.8Y-45.46
X137.8Y-48.0
X137.8Y-50.54
X137.8Y-53.08
X137.8Y-55.62
X137.8Y-58.16
X170.4Y-75.99
X170.4Y-78.53
X170.4Y-81.07
X170.4Y-83.61
T9
X109.375Y-89.91
X109.375Y-95.91
T3
G00X106.975Y-94.21
M15
G01X106.975Y-93.61
M16
G05
G00X111.775Y-89.21
M15
G01X111.775Y-88.61
M16
G05
G00X111.775Y-96.21
M15
G01X111.775Y-95.61
M16
G05
M30
